<svg width="50" height="50" viewBox="0 0 50 50" fill="none" xmlns="http://www.w3.org/2000/svg">
<rect width="50" height="50" rx="25" fill="#3572C1" fill-opacity="0.1"/>
<path fill-rule="evenodd" clip-rule="evenodd" d="M33.3334 25.0003C33.3334 29.6027 29.6024 33.3337 25 33.3337C23.727 33.3337 22.5207 33.0482 21.4415 32.5379L18.0412 33.1046C17.3662 33.2171 16.7802 32.6336 16.8897 31.9581L17.4464 28.5245C16.9461 27.4541 16.6667 26.2599 16.6667 25.0003C16.6667 20.398 20.3976 16.667 25 16.667C29.6024 16.667 33.3334 20.398 33.3334 25.0003ZM28.3333 27.2294V27.5929C28.3333 28.002 28.0017 28.3337 27.5926 28.3337C24.3198 28.3337 21.6667 25.6805 21.6667 22.4077C21.6667 21.9986 21.9983 21.667 22.4074 21.667H22.7709C23.2224 21.667 23.6285 21.9419 23.7962 22.3611L23.9517 22.7499C24.1255 23.1845 23.9372 23.6799 23.5185 23.8892C23.5185 23.8892 23.7037 24.8151 24.4444 25.5559C25.1852 26.2966 26.1111 26.4818 26.1111 26.4818C26.3205 26.0631 26.8158 25.8748 27.2504 26.0486L27.6392 26.2042C28.0584 26.3718 28.3333 26.7779 28.3333 27.2294Z" fill="#3572C1"/>
</svg>
