<svg width="46" height="46" viewBox="0 0 46 46" fill="none" xmlns="http://www.w3.org/2000/svg">
<mask id="mask0_58_2074" style="mask-type:luminance" maskUnits="userSpaceOnUse" x="0" y="0" width="46" height="46">
<path d="M0 0H46V46H0V0Z" fill="white"/>
</mask>
<g mask="url(#mask0_58_2074)">
<path d="M9.39585 25.7318C9.39585 25.897 9.3415 26.0413 9.2328 26.1645C9.12411 26.2877 8.98994 26.3492 8.8306 26.3492C8.68276 26.3492 8.55447 26.2905 8.44578 26.1731C8.33708 26.0557 8.28273 25.9217 8.28273 25.7709C8.28273 25.6115 8.33708 25.4724 8.44578 25.3535C8.55447 25.2347 8.68276 25.1752 8.8306 25.1752C8.99582 25.1752 9.13126 25.231 9.23715 25.3426C9.3429 25.4543 9.39585 25.584 9.39585 25.7318ZM9.93937 31.7627H7.86963V31.4757C7.93628 31.47 8.00507 31.4642 8.07616 31.4583C8.14716 31.4526 8.20879 31.441 8.26097 31.4236C8.34206 31.3976 8.40229 31.352 8.44143 31.2869C8.48057 31.2217 8.50012 31.137 8.50012 31.0327V28.3878C8.50012 28.2952 8.47904 28.2105 8.43709 28.1338C8.39501 28.0571 8.33631 27.9927 8.26097 27.9405C8.20585 27.9058 8.12616 27.8762 8.02181 27.8515C7.91746 27.8269 7.82179 27.8117 7.73486 27.8059V27.5189L9.24801 27.4232L9.30887 27.4841V30.9801C9.30887 31.0815 9.32834 31.1656 9.36718 31.2322C9.40594 31.2989 9.46719 31.3482 9.55059 31.3801C9.61401 31.4062 9.67594 31.4272 9.73629 31.4431C9.79677 31.4591 9.86441 31.47 9.93937 31.4757V31.7627Z" fill="#3572C1"/>
<path d="M18.0802 26.8219C17.8788 26.372 17.5994 25.9884 17.243 25.6699C16.8968 25.3582 16.4869 25.1168 16.0124 24.9442C15.5378 24.7721 15.0324 24.6864 14.4972 24.6864C13.9805 24.6864 13.4859 24.7706 13.0134 24.9396C12.5404 25.1085 12.1254 25.352 11.7689 25.6699C11.4079 25.9914 11.1249 26.372 10.9199 26.8122C10.715 27.2518 10.6123 27.7526 10.6123 28.3145C10.6123 28.8276 10.7099 29.3088 10.9056 29.7582C11.1012 30.2082 11.3699 30.5903 11.7119 30.9051C12.0535 31.2267 12.4628 31.4773 12.9394 31.6576C13.4161 31.8379 13.9348 31.9277 14.4972 31.9277C14.8793 31.9277 15.246 31.8836 15.5969 31.7947C15.5743 31.6483 15.5393 31.4871 15.4613 31.3124C15.1696 31.4342 14.8485 31.4943 14.4972 31.4943C14.0642 31.4943 13.6919 31.4141 13.3806 31.2534C13.0694 31.0926 12.811 30.8697 12.6061 30.5836C12.3935 30.2919 12.2379 29.9575 12.1393 29.5805C12.0401 29.2041 11.9908 28.7819 11.9908 28.3145C11.9908 27.8923 12.0375 27.4896 12.1305 27.1065C12.2235 26.7239 12.3647 26.3895 12.5548 26.1034C12.7561 25.805 13.016 25.5662 13.3349 25.3874C13.6539 25.2092 14.0417 25.1199 14.4972 25.1199C14.9035 25.1199 15.264 25.1969 15.5794 25.351C15.8947 25.5051 16.1567 25.7202 16.3652 25.9966C16.5743 26.2755 16.733 26.6134 16.8408 27.0094C16.9492 27.4054 17.0036 27.8404 17.0036 28.3145C17.0036 28.7757 16.9549 29.1928 16.8583 29.5661C16.8434 29.6237 16.827 29.6802 16.809 29.7362C17.0196 29.937 17.2769 30.1198 17.6041 30.2539C17.6672 30.2801 17.7278 30.3021 17.7853 30.3207C17.8948 30.1614 17.9908 29.9909 18.074 29.8096C18.2795 29.3612 18.3822 28.863 18.3822 28.3145C18.3822 27.769 18.281 27.2713 18.0802 26.8219Z" fill="#3572C1"/>
<path d="M27.4531 31.7627H24.7426V31.4878C24.8225 31.4807 24.9207 31.469 25.037 31.4525C25.1533 31.4361 25.2325 31.4185 25.2748 31.3996C25.3618 31.3644 25.424 31.3162 25.4616 31.2551C25.4993 31.1941 25.518 31.1166 25.518 31.0225V27.2863L23.798 31.6816H23.3539C23.3327 31.6041 23.2804 31.4502 23.1971 31.2199C23.1136 30.9896 23.0461 30.8052 22.9943 30.6665L21.729 27.2299V30.2717C21.729 30.5632 21.7485 30.7846 21.7872 30.9361C21.826 31.0877 21.8887 31.1987 21.9757 31.2692C22.0345 31.3186 22.1397 31.3656 22.2913 31.4102C22.4428 31.4549 22.5491 31.4807 22.6102 31.4878V31.7627H20.4601V31.4878C20.5189 31.4807 20.6146 31.4648 20.7474 31.4402C20.8801 31.4155 20.9888 31.3726 21.0734 31.3116C21.1674 31.2457 21.2309 31.1348 21.2637 30.9784C21.2966 30.8223 21.3131 30.5995 21.3131 30.3105V27.8326C21.3131 27.6823 21.2943 27.5571 21.2567 27.4573C21.219 27.3575 21.1626 27.2782 21.0875 27.2193C20.9935 27.1466 20.8972 27.0995 20.7985 27.0784C20.6998 27.0572 20.6 27.0431 20.4989 27.0361V26.7611H22.8036L24.0364 30.0565L25.0756 27.3821C25.1107 27.2833 25.1448 27.1657 25.1777 27.0293C25.2106 26.8929 25.2282 26.8035 25.2306 26.7611H27.446V27.0361C27.3709 27.0408 27.2921 27.0502 27.2099 27.0643C27.1277 27.0784 27.0489 27.0972 26.9737 27.1207C26.8821 27.1512 26.8216 27.1994 26.7923 27.2652C26.7628 27.331 26.7482 27.4039 26.7482 27.4837V31.026C26.7482 31.1106 26.7628 31.1818 26.7923 31.2393C26.8216 31.2969 26.8821 31.3468 26.9737 31.3891C27.0207 31.4102 27.0977 31.4303 27.2047 31.449C27.3116 31.4678 27.3943 31.4807 27.4531 31.4878V31.7627Z" fill="#3572C1"/>
<path d="M34.1325 31.7627H31.4502V31.4878C31.509 31.4831 31.5947 31.4755 31.7075 31.4648C31.8203 31.4543 31.8978 31.4396 31.9401 31.4208C32.0271 31.3855 32.087 31.3392 32.1199 31.2816C32.1528 31.2241 32.1692 31.1506 32.1692 31.0613V28.1393L29.9205 30.9309C29.9205 31.093 29.9364 31.2 29.9681 31.2516C29.9999 31.3034 30.0591 31.3492 30.146 31.3891C30.1954 31.4102 30.273 31.4308 30.3787 31.4507C30.4844 31.4708 30.5714 31.4831 30.6395 31.4878V31.7627H27.9678V31.4878C28.0266 31.4855 28.1129 31.4778 28.2269 31.4648C28.3408 31.4519 28.4236 31.4361 28.4753 31.4173C28.5599 31.3867 28.6187 31.3403 28.6516 31.278C28.6844 31.2158 28.7009 31.1423 28.7009 31.0577V27.5189C28.7009 27.4368 28.6863 27.3674 28.6569 27.311C28.6275 27.2546 28.567 27.2052 28.4753 27.163C28.4072 27.1325 28.3179 27.1048 28.2075 27.0801C28.0971 27.0554 28.0171 27.0408 27.9678 27.0361V26.7611H30.6501V27.0361C30.5772 27.0408 30.4904 27.0526 30.3892 27.0713C30.2882 27.0902 30.2106 27.1078 30.1566 27.1242C30.065 27.1548 30.0045 27.2035 29.9752 27.2705C29.9457 27.3375 29.931 27.4085 29.931 27.4837V30.3458L32.1798 27.5542C32.1798 27.4321 32.1622 27.3457 32.1269 27.2951C32.0917 27.2446 32.0329 27.2006 31.9507 27.163C31.8826 27.1301 31.7997 27.103 31.7023 27.0819C31.6047 27.0607 31.5242 27.0455 31.4608 27.0361V26.7611H34.1325V27.0361C34.0574 27.0408 33.9728 27.0508 33.8787 27.066C33.7847 27.0813 33.7001 27.1007 33.6249 27.1242C33.5357 27.1548 33.4758 27.2029 33.4452 27.2687C33.4146 27.3346 33.3994 27.4062 33.3994 27.4837V31.026C33.3994 31.1106 33.4146 31.1823 33.4452 31.241C33.4758 31.2998 33.5357 31.3492 33.6249 31.3891C33.6813 31.4126 33.763 31.4338 33.87 31.4525C33.9769 31.4714 34.0644 31.4831 34.1325 31.4878V31.7627Z" fill="#3572C1"/>
<path d="M37.9321 28.1922C37.9321 27.8162 37.8564 27.5372 37.7049 27.355C37.5533 27.173 37.2836 27.0819 36.8959 27.0819H36.6033V29.2778H36.7513C37.1367 29.2778 37.4299 29.1891 37.6308 29.0116C37.8317 28.8343 37.9321 28.5611 37.9321 28.1922ZM39.3068 28.0124C39.3068 28.2944 39.2487 28.537 39.1323 28.7402C39.016 28.9435 38.8556 29.1086 38.6512 29.2355C38.4397 29.3671 38.1983 29.4623 37.9269 29.521C37.6555 29.5798 37.3506 29.6091 37.0122 29.6091H36.6033V31.0155C36.6033 31.1 36.6193 31.1735 36.651 31.2357C36.6827 31.2981 36.7432 31.348 36.8324 31.3855C36.8794 31.4044 36.9558 31.4243 37.0615 31.4455C37.1673 31.4666 37.2565 31.4807 37.3294 31.4878V31.7627H34.6189V31.4878C34.687 31.4807 34.7775 31.4708 34.8903 31.4578C35.0031 31.4449 35.0818 31.429 35.1265 31.4102C35.2181 31.3726 35.2786 31.3268 35.308 31.2728C35.3374 31.2187 35.352 31.1435 35.352 31.0472V27.5189C35.352 27.4367 35.3379 27.3656 35.3097 27.3057C35.2816 27.2458 35.2205 27.1959 35.1265 27.1559C35.0606 27.1277 34.9732 27.1025 34.8639 27.0801C34.7547 27.0578 34.6729 27.0431 34.6189 27.0361V26.7611H37.3788C38.0249 26.7611 38.5078 26.864 38.8274 27.0695C39.147 27.2752 39.3068 27.5894 39.3068 28.0124Z" fill="#3572C1"/>
<path d="M17.3274 32.6193C17.0171 32.0699 16.7074 31.5211 16.3977 30.9723C16.8126 31.5371 17.2282 32.1018 17.6438 32.6666C17.5379 32.6506 17.4327 32.6347 17.3274 32.6193ZM17.5066 32.3756C17.482 32.337 17.4746 32.2837 17.4939 32.2371C17.5259 32.1585 17.6105 32.1438 17.6198 32.1425C17.7237 32.1265 17.793 32.2197 17.7963 32.2244C17.8389 32.2844 17.8443 32.3643 17.8116 32.4342C17.9974 32.6666 18.1833 32.8984 18.3684 33.1302C18.2838 32.995 18.2379 32.8744 18.2112 32.7905C18.1459 32.5807 18.1439 32.4022 18.1419 32.243C18.1406 32.1225 18.1479 32.0226 18.1546 31.954C17.42 31.3506 17.2349 31.1488 17.2608 31.1102C17.2642 31.1062 17.2808 31.0875 17.3055 31.0536C17.3374 31.0083 17.3534 30.9863 17.3554 30.9656C17.3607 30.9117 17.3061 30.8544 17.2489 30.8338C17.2082 30.8185 17.1723 30.8238 17.1543 30.8271C17.1083 30.7645 17.0617 30.7013 17.0157 30.6387H16.9278C16.5456 30.1312 16.1639 29.623 15.7823 29.1155C15.4007 29.1075 15.0191 29.0989 14.6368 29.0902C15.1703 29.7869 15.7037 30.4835 16.2372 31.1795C16.2292 31.2081 16.2212 31.2361 16.2132 31.2647C16.2731 31.3293 16.3331 31.3939 16.393 31.4578C16.3771 31.4712 16.3264 31.5165 16.3364 31.5617C16.3384 31.5724 16.3431 31.5797 16.3737 31.6137C16.4197 31.6643 16.4423 31.6903 16.4543 31.6943C16.5163 31.7156 16.5975 31.6237 16.6049 31.615C16.794 31.982 16.9838 32.3483 17.1729 32.7153C17.3428 32.7286 17.482 32.7612 17.5818 32.7905C17.6884 32.8218 17.8516 32.8717 18.0354 32.9923C18.158 33.0722 18.2472 33.1561 18.3058 33.2188C18.1067 32.9583 17.9075 32.6986 17.7077 32.4382C17.6278 32.4629 17.5452 32.4355 17.5066 32.3756Z" fill="#EC1C26"/>
<path d="M18.7463 33.2067C23.0089 33.1624 28.6928 33.1157 32.9341 33.0865C34.6272 33.0881 36.4024 33.1141 38.0933 33.1612C38.5232 33.1766 38.9532 33.1872 39.3831 33.2067V33.2323C38.9532 33.2519 38.5232 33.2625 38.0933 33.2778C36.403 33.3249 34.6268 33.351 32.9341 33.3525C28.7179 33.2978 22.9305 33.3252 18.7463 33.2067Z" fill="#EC1C26"/>
<path d="M9.16384 40.1709C9.07486 40.1038 9.00377 40.025 8.95045 39.9345C8.89712 39.8439 8.86467 39.7465 8.85317 39.6421C8.84175 39.5398 8.85295 39.4323 8.88686 39.3198C8.92076 39.2073 8.97749 39.0982 9.05701 38.9927C9.13611 38.8879 9.22564 38.8031 9.32582 38.7385C9.42591 38.6739 9.5303 38.6312 9.63891 38.6104C9.74544 38.5901 9.85277 38.593 9.96091 38.6192C10.069 38.6453 10.1695 38.6934 10.2624 38.7635C10.3297 38.8141 10.384 38.8696 10.4254 38.9297C10.4668 38.9898 10.498 39.0456 10.519 39.0973L10.6115 39.0849L10.6858 39.1409L10.3217 39.64L10.2465 39.5833C10.3174 39.4003 10.3497 39.251 10.3431 39.1353C10.3365 39.0196 10.2903 38.9294 10.2044 38.8645C10.0973 38.7839 9.97625 38.7751 9.8411 38.8383C9.706 38.9014 9.56676 39.0281 9.42348 39.2182C9.34243 39.3256 9.28284 39.4246 9.24463 39.5149C9.20639 39.6053 9.18518 39.6852 9.18096 39.7548C9.17755 39.8281 9.18982 39.8929 9.21776 39.9494C9.24574 40.0059 9.28706 40.0547 9.34175 40.0959C9.42139 40.156 9.51067 40.1855 9.60935 40.1842C9.70808 40.1829 9.81989 40.1527 9.94481 40.0936L9.98106 40.1986C9.9144 40.2359 9.84881 40.2649 9.78415 40.2854C9.71958 40.3059 9.65476 40.3165 9.5898 40.3173C9.51842 40.3183 9.44814 40.3081 9.37893 40.2867C9.30963 40.2654 9.2379 40.2268 9.16384 40.1709Z" fill="#5E6163"/>
<path d="M12.0168 40.5267L11.9482 40.483C11.9652 40.4178 11.97 40.3438 11.9626 40.2612C11.9552 40.1785 11.9336 40.1187 11.8978 40.0818C11.8827 40.0657 11.8594 40.0468 11.8279 40.0253C11.7962 40.0038 11.7699 39.9863 11.7489 39.9729L11.5628 39.8544L11.2123 40.4045L11.3442 40.4885C11.3773 40.5096 11.4102 40.5244 11.4428 40.5329C11.4755 40.5416 11.5108 40.5404 11.549 40.5298C11.5726 40.5232 11.6039 40.505 11.6429 40.4751C11.6818 40.4452 11.7125 40.4173 11.7351 40.3911L11.8037 40.4348L11.4245 41.0303L11.3558 40.9865C11.3702 40.9561 11.3835 40.9148 11.3958 40.8629C11.4082 40.8109 11.4129 40.7726 11.4099 40.7481C11.4055 40.7113 11.3925 40.6798 11.3712 40.6535C11.3499 40.6271 11.3214 40.6027 11.2859 40.5801L11.1541 40.4961L10.892 40.9074C10.8647 40.9503 10.8459 40.9862 10.8356 41.015C10.8252 41.0438 10.8236 41.0699 10.8308 41.0933C10.8377 41.1155 10.853 41.1371 10.8766 41.1578C10.9003 41.1785 10.9347 41.2032 10.9798 41.232C11.0009 41.2454 11.0264 41.2612 11.0563 41.2793C11.0862 41.2974 11.1134 41.3119 11.1378 41.3227C11.1653 41.3355 11.1921 41.3455 11.2184 41.3529C11.2446 41.3601 11.2671 41.3608 11.2862 41.355C11.336 41.3405 11.4004 41.3111 11.4794 41.2667C11.5585 41.2224 11.6144 41.1871 11.6472 41.1608L11.7131 41.2028L11.4056 41.6318L10.2036 40.8662L10.2535 40.7877C10.2713 40.7971 10.2958 40.809 10.3273 40.8234C10.3587 40.8378 10.3822 40.8461 10.3976 40.8484C10.4274 40.8523 10.4514 40.8485 10.4697 40.837C10.4879 40.8256 10.5052 40.8072 10.5215 40.7816L11.1628 39.7749C11.1782 39.7507 11.1876 39.7287 11.1909 39.7087C11.1943 39.6887 11.1874 39.6643 11.1703 39.6354C11.1598 39.6174 11.1425 39.5961 11.1185 39.5713C11.0945 39.5466 11.0759 39.5286 11.0627 39.5175L11.1126 39.439L12.2488 40.1626L12.0168 40.5267Z" fill="#5E6163"/>
<path d="M13.822 42.9219L13.0891 42.5465L13.1315 42.4637C13.1542 42.4727 13.1825 42.4827 13.2165 42.4939C13.2505 42.5051 13.2746 42.5107 13.289 42.5109C13.3179 42.5123 13.3422 42.5065 13.3618 42.4933C13.3814 42.4801 13.3984 42.4594 13.4129 42.431L13.9891 41.306L12.8462 42.3913L12.7261 42.3298C12.7323 42.3036 12.7419 42.25 12.7549 42.1691C12.7678 42.0882 12.778 42.0233 12.7854 41.9744L12.9732 40.7643L12.5041 41.6803C12.4592 41.768 12.4303 41.8374 12.4174 41.8884C12.4045 41.9394 12.4044 41.9816 12.417 42.0148C12.4253 42.0378 12.4465 42.0665 12.4806 42.101C12.5147 42.1354 12.5394 42.1579 12.5549 42.1685L12.5125 42.2513L11.9311 41.9536L11.9736 41.8708C11.9905 41.8768 12.0188 41.8853 12.0585 41.8962C12.0982 41.9072 12.1342 41.9094 12.1665 41.9026C12.2021 41.8958 12.2363 41.8712 12.2694 41.8287C12.3023 41.7862 12.3411 41.7214 12.3857 41.6343L12.7678 40.8882C12.791 40.8429 12.8052 40.8026 12.8105 40.7674C12.8157 40.7321 12.8127 40.7004 12.8013 40.6723C12.7872 40.6373 12.7684 40.6098 12.745 40.5898C12.7215 40.5697 12.6967 40.5517 12.6705 40.5356L12.7129 40.4528L13.3361 40.7719L13.1612 41.935L13.8547 41.2735C13.8794 41.2486 13.9067 41.2179 13.9366 41.1814C13.9666 41.1448 13.9851 41.1203 13.9923 41.1079L14.5913 41.4147L14.549 41.4975C14.5279 41.4885 14.5052 41.4804 14.4808 41.4733C14.4564 41.4661 14.4322 41.4609 14.4083 41.4576C14.3787 41.4541 14.3549 41.4602 14.3368 41.476C14.3187 41.4917 14.3036 41.5116 14.2913 41.5357L13.745 42.6024C13.7319 42.6279 13.7249 42.6513 13.724 42.6727C13.7231 42.6941 13.7318 42.7176 13.75 42.743C13.7595 42.7558 13.7771 42.7725 13.8032 42.793C13.8292 42.8134 13.8496 42.8288 13.8644 42.8391L13.822 42.9219Z" fill="#5E6163"/>
<path d="M16.1424 42.5035L16.0668 42.4736C16.0712 42.4063 16.0619 42.3327 16.0391 42.253C16.0162 42.1732 15.9837 42.1185 15.9416 42.0891C15.9238 42.076 15.8973 42.0619 15.8623 42.0467C15.8273 42.0315 15.7981 42.0194 15.7748 42.0101L15.5698 41.9288L15.3293 42.5352L15.4746 42.5928C15.5112 42.6073 15.5462 42.6156 15.5799 42.6179C15.6136 42.6201 15.6481 42.6125 15.6835 42.5948C15.7055 42.5839 15.7328 42.56 15.7654 42.5234C15.7979 42.4867 15.8229 42.4534 15.8402 42.4234L15.9158 42.4534L15.6556 43.1097L15.58 43.0797C15.5882 43.0471 15.5935 43.0041 15.5959 42.9507C15.5983 42.8973 15.5957 42.8589 15.5881 42.8353C15.5768 42.8001 15.5582 42.7715 15.5322 42.7497C15.5063 42.7279 15.4738 42.7092 15.4346 42.6937L15.2894 42.636L15.1095 43.0894C15.0908 43.1367 15.079 43.1755 15.0744 43.2057C15.0697 43.2359 15.0731 43.2618 15.0844 43.2835C15.0955 43.3041 15.1145 43.3223 15.1416 43.3382C15.1687 43.3541 15.2072 43.3719 15.2569 43.3916C15.2802 43.4008 15.3082 43.4115 15.341 43.4237C15.3738 43.4359 15.4032 43.445 15.4292 43.451C15.4586 43.4583 15.4868 43.4631 15.5139 43.4653C15.5411 43.4676 15.5634 43.464 15.5809 43.4547C15.6272 43.4311 15.6849 43.3901 15.7542 43.3316C15.8234 43.2731 15.8717 43.2279 15.899 43.196L15.9716 43.2248L15.7505 43.7041L14.4257 43.1787L14.4599 43.0922C14.4791 43.0981 14.5055 43.1052 14.5391 43.1133C14.5727 43.1216 14.5973 43.1254 14.6129 43.1247C14.6428 43.1229 14.6657 43.1146 14.6815 43.0999C14.6973 43.0852 14.7108 43.0639 14.7219 43.0358L15.1619 41.9261C15.1725 41.8995 15.1775 41.8761 15.1772 41.8558C15.1767 41.8356 15.1654 41.8129 15.143 41.7878C15.1293 41.7721 15.1083 41.7543 15.0801 41.7346C15.0518 41.7149 15.0302 41.7007 15.0151 41.6922L15.0494 41.6057L16.3016 42.1022L16.1424 42.5035Z" fill="#5E6163"/>
<path d="M18.3129 42.3212C18.306 42.3449 18.2898 42.3716 18.2643 42.4014C18.2388 42.4313 18.2066 42.4541 18.1678 42.4701C18.1221 42.489 18.0707 42.4999 18.0137 42.5026C17.9568 42.5054 17.8827 42.4934 17.7916 42.4668C17.7081 42.4423 17.6409 42.4125 17.5902 42.3773C17.5395 42.3422 17.5011 42.3055 17.4752 42.2672C17.4497 42.2299 17.4345 42.1932 17.4299 42.157C17.4252 42.1209 17.4267 42.0898 17.4343 42.0639C17.4457 42.025 17.4672 41.9965 17.4986 41.9783C17.53 41.9602 17.5647 41.9566 17.6025 41.9678C17.6437 41.9798 17.6748 42.0008 17.6956 42.0304C17.7164 42.0601 17.7211 42.0945 17.7097 42.1334C17.7034 42.1547 17.6909 42.1778 17.6721 42.2025C17.6533 42.2272 17.6391 42.2448 17.6293 42.2552C17.6502 42.2854 17.6774 42.3109 17.7108 42.3319C17.7442 42.3528 17.7797 42.3688 17.8171 42.3798C17.8532 42.3904 17.891 42.3965 17.9305 42.3981C17.9699 42.3997 18.0083 42.3927 18.0455 42.3771C18.0429 42.3606 18.0405 42.337 18.0384 42.3061C18.0363 42.2752 18.0381 42.2503 18.0436 42.2312C18.0548 42.193 18.0778 42.1671 18.1124 42.1532C18.1471 42.1393 18.1837 42.138 18.2222 42.1493C18.2607 42.1606 18.2884 42.1819 18.3053 42.2134C18.3222 42.2449 18.3248 42.2808 18.3129 42.3212ZM18.1595 44.4521L17.3775 44.2231L17.4037 44.1338C17.4212 44.1373 17.447 44.1422 17.4809 44.1483C17.5148 44.1546 17.5388 44.1564 17.5529 44.1539C17.5816 44.1499 17.6035 44.1399 17.6186 44.1241C17.6336 44.1082 17.6454 44.0858 17.6539 44.0568L17.9318 43.1081L17.0107 43.8223C16.9953 43.875 16.9898 43.9111 16.994 43.9306C16.9984 43.9501 17.0113 43.97 17.0329 43.9904C17.0452 44.0014 17.0659 44.0148 17.0948 44.0303C17.1238 44.0458 17.1479 44.0572 17.1673 44.0646L17.1412 44.1538L16.3623 43.9257L16.3884 43.8364C16.4058 43.8407 16.4317 43.8456 16.4662 43.8511C16.5006 43.8567 16.5263 43.8586 16.5432 43.8569C16.5707 43.8542 16.5923 43.8441 16.6078 43.8267C16.6233 43.8093 16.635 43.7869 16.6431 43.7594L16.9797 42.6104C16.9875 42.5837 16.9898 42.5599 16.9866 42.5391C16.9834 42.5183 16.9704 42.4971 16.9477 42.4756C16.9308 42.4598 16.9074 42.4432 16.8776 42.4258C16.8477 42.4083 16.8258 42.3968 16.8119 42.3911L16.838 42.3017L17.62 42.5308L17.5939 42.6201C17.5721 42.6154 17.5457 42.6118 17.5144 42.6093C17.4833 42.6067 17.4589 42.6058 17.4416 42.6066C17.412 42.6087 17.3897 42.6193 17.3748 42.6385C17.3599 42.6578 17.3488 42.6796 17.3417 42.704L17.0695 43.6333L17.9906 42.9189C18.0022 42.8793 18.0052 42.8497 17.9997 42.8303C17.9943 42.8109 17.9813 42.7916 17.961 42.7724C17.9442 42.7559 17.9226 42.74 17.8962 42.7248C17.8698 42.7096 17.8478 42.6978 17.8302 42.6893L17.8564 42.6001L18.6352 42.8282L18.6091 42.9175C18.5867 42.9126 18.5611 42.9086 18.5322 42.9056C18.5034 42.9025 18.4769 42.9016 18.4527 42.9028C18.4238 42.9051 18.4018 42.9156 18.3866 42.9343C18.3714 42.9531 18.3602 42.9751 18.3528 43.0002L18.0158 44.1503C18.0078 44.1778 18.0054 44.2024 18.0088 44.2241C18.0121 44.2458 18.0249 44.2669 18.0471 44.2875C18.0613 44.3 18.0831 44.3138 18.1125 44.329C18.1418 44.3443 18.1663 44.3555 18.1857 44.3629L18.1595 44.4521Z" fill="#5E6163"/>
<path d="M20.6207 44.9385L19.8129 44.7901L19.8298 44.6986C19.8476 44.7003 19.8737 44.7026 19.908 44.7057C19.9422 44.7087 19.9662 44.7083 19.98 44.7044C20.0081 44.6974 20.0288 44.6853 20.0423 44.6679C20.0555 44.6506 20.065 44.627 20.0704 44.5974L20.1758 44.0238L19.5376 43.9065L19.4346 44.4672C19.4297 44.4938 19.4305 44.5186 19.4367 44.5416C19.4431 44.5645 19.4574 44.5841 19.4799 44.6004C19.492 44.6091 19.5136 44.6199 19.5446 44.6329C19.5756 44.6459 19.6011 44.655 19.6213 44.6603L19.6044 44.7518L18.7966 44.6034L18.8135 44.5119C18.8311 44.5143 18.8575 44.5166 18.8923 44.5185C18.9271 44.5205 18.9528 44.5197 18.9694 44.5163C18.9966 44.5108 19.017 44.4986 19.0306 44.4797C19.0442 44.4607 19.0536 44.4372 19.0588 44.409L19.2752 43.2315C19.2802 43.2041 19.2801 43.1803 19.2747 43.1599C19.2694 43.1395 19.2543 43.1197 19.2296 43.1006C19.2111 43.0867 19.186 43.0726 19.1545 43.0584C19.1231 43.0441 19.1001 43.0348 19.0857 43.0305L19.1024 42.9391L19.9102 43.0875L19.8934 43.179C19.8713 43.1765 19.8446 43.1757 19.8133 43.1764C19.782 43.1771 19.7577 43.1787 19.7406 43.1812C19.7113 43.1863 19.6903 43.1992 19.6774 43.2199C19.6645 43.2406 19.6558 43.2634 19.6512 43.2884L19.5598 43.7858L20.198 43.903L20.2872 43.4174C20.2923 43.3901 20.2919 43.3662 20.2863 43.3457C20.2806 43.3252 20.2654 43.3055 20.2405 43.2864C20.224 43.2737 20.2012 43.2604 20.1722 43.2466C20.1432 43.2327 20.1198 43.223 20.1019 43.2173L20.1187 43.1258L20.9265 43.2742L20.9097 43.3657C20.8869 43.3631 20.8611 43.3618 20.832 43.3617C20.803 43.3617 20.7765 43.3634 20.7527 43.3672C20.7241 43.3724 20.7032 43.3852 20.6901 43.4054C20.6769 43.4255 20.668 43.4486 20.6633 43.4744L20.4467 44.6531C20.4415 44.6813 20.4417 44.706 20.4473 44.7272C20.4528 44.7484 20.4677 44.7681 20.4919 44.7863C20.5073 44.7972 20.5304 44.8088 20.5612 44.8209C20.592 44.833 20.6174 44.8417 20.6375 44.847L20.6207 44.9385Z" fill="#5E6163"/>
<path d="M23.5479 45.1875L22.7393 45.1329L22.7455 45.0401C22.7655 45.0398 22.7901 45.0391 22.8192 45.0379C22.8482 45.0367 22.8701 45.0334 22.8848 45.028C22.9119 45.0179 22.9312 45.0034 22.9424 44.9846C22.9537 44.9659 22.9603 44.9414 22.9624 44.9113L23.0433 43.7144C23.0451 43.6866 23.042 43.6629 23.0341 43.6432C23.0261 43.6235 23.0087 43.6057 22.9819 43.5895C22.964 43.5787 22.9399 43.5681 22.9095 43.5577C22.8791 43.5473 22.8547 43.5403 22.8363 43.5366L22.8426 43.4438L23.662 43.4992L23.6557 43.592C23.6328 43.5921 23.6069 43.5937 23.5781 43.5969C23.5493 43.6001 23.5232 43.605 23.4998 43.6114C23.4721 43.6198 23.4529 43.6349 23.4421 43.6565C23.4313 43.6781 23.4251 43.7019 23.4233 43.7281L23.3425 44.9239C23.3406 44.9523 23.3436 44.9769 23.3515 44.9974C23.3594 45.0178 23.3765 45.0357 23.4027 45.051C23.4192 45.0601 23.4435 45.0689 23.4754 45.0774C23.5074 45.086 23.5336 45.0917 23.5542 45.0947L23.5479 45.1875ZM22.3748 44.6176C22.3831 44.4953 22.359 44.3997 22.303 44.3309C22.2467 44.262 22.1595 44.2236 22.0414 44.2156C22.0271 44.2146 22.0085 44.214 21.9856 44.2137C21.9628 44.2133 21.9478 44.2133 21.9406 44.2136L21.8968 44.8618C21.9011 44.8933 21.919 44.9198 21.9505 44.9415C21.9819 44.9632 22.0212 44.9756 22.0681 44.9788C22.1536 44.9845 22.2241 44.9554 22.2796 44.8913C22.335 44.8273 22.3668 44.736 22.3748 44.6176ZM22.798 44.6289C22.7923 44.7129 22.7708 44.7864 22.7337 44.8493C22.6966 44.9121 22.648 44.963 22.5882 45.002C22.5306 45.0387 22.4678 45.0647 22.3999 45.0801C22.332 45.0954 22.2624 45.1007 22.1911 45.0959L21.2809 45.0344L21.2872 44.9416C21.308 44.9406 21.3357 44.9391 21.3702 44.937C21.4046 44.935 21.4288 44.9312 21.4428 44.9258C21.4692 44.9164 21.4881 44.9021 21.4994 44.883C21.5107 44.8638 21.5174 44.8388 21.5195 44.8079L21.5999 43.6169C21.6018 43.5899 21.5989 43.566 21.5914 43.5452C21.5838 43.5243 21.5666 43.5063 21.5398 43.4909C21.5204 43.48 21.4947 43.4695 21.4625 43.4594C21.4302 43.4493 21.4057 43.4424 21.3887 43.4389L21.395 43.3461L22.2294 43.4024L22.2231 43.4952C22.2009 43.4953 22.1733 43.4969 22.1402 43.4998C22.107 43.5027 22.0791 43.5074 22.0566 43.5139C22.0288 43.5223 22.0095 43.5374 21.9988 43.559C21.988 43.5805 21.9818 43.6044 21.98 43.6306L21.9485 44.0958C21.9814 44.0972 22.0176 44.0983 22.0573 44.099C22.097 44.0997 22.1353 44.1013 22.1723 44.1038C22.2627 44.1099 22.3478 44.1244 22.4275 44.1473C22.5071 44.1702 22.5749 44.2022 22.6308 44.2435C22.688 44.2864 22.7317 44.3389 22.7618 44.4012C22.792 44.4633 22.804 44.5392 22.798 44.6289Z" fill="#5E6163"/>
<path d="M25.5025 43.86L25.4212 43.8633C25.3979 43.8 25.3597 43.7365 25.3063 43.6729C25.253 43.6092 25.2012 43.5725 25.1508 43.5627C25.1291 43.558 25.0992 43.5558 25.061 43.5562C25.0228 43.5565 24.9912 43.5572 24.9663 43.5582L24.7458 43.5671L24.7722 44.2189L24.9284 44.2126C24.9676 44.211 25.0031 44.2044 25.0348 44.1927C25.0665 44.1811 25.0949 44.1601 25.1201 44.1296C25.1357 44.1107 25.151 44.0778 25.1659 44.0311C25.1808 43.9843 25.1901 43.9438 25.1937 43.9094L25.275 43.9061L25.3035 44.6116L25.2222 44.6148C25.2165 44.5816 25.204 44.5402 25.1845 44.4904C25.165 44.4407 25.147 44.4067 25.1306 44.3882C25.1058 44.3606 25.0773 44.342 25.0447 44.3326C25.0122 44.3231 24.9749 44.3193 24.9328 44.321L24.7766 44.3273L24.7963 44.8146C24.7983 44.8655 24.8033 44.9057 24.8113 44.9351C24.8193 44.9647 24.8329 44.987 24.8521 45.0021C24.8705 45.0165 24.8953 45.0254 24.9266 45.029C24.9578 45.0325 25.0002 45.0331 25.0536 45.031C25.0786 45.03 25.1086 45.0284 25.1434 45.0262C25.1784 45.0239 25.209 45.0203 25.2352 45.0153C25.265 45.0101 25.2927 45.003 25.3184 44.994C25.3441 44.9851 25.3631 44.9727 25.3754 44.9572C25.408 44.9168 25.4441 44.8559 25.4837 44.7744C25.5232 44.6927 25.5491 44.6319 25.561 44.5916L25.6391 44.5884L25.6315 45.1163L24.2075 45.1738L24.2037 45.0808C24.2236 45.0784 24.2506 45.0742 24.2846 45.068C24.3187 45.0619 24.3427 45.0553 24.3568 45.0484C24.3833 45.0346 24.4008 45.0178 24.4093 44.998C24.4178 44.9781 24.4214 44.9531 24.4202 44.9229L24.372 43.7302C24.3709 43.7016 24.366 43.6781 24.3574 43.6598C24.3488 43.6414 24.3292 43.6253 24.2987 43.6114C24.2797 43.6026 24.2534 43.5949 24.2195 43.5884C24.1856 43.5818 24.1601 43.5776 24.1429 43.576L24.1392 43.483L25.485 43.4286L25.5025 43.86Z" fill="#5E6163"/>
<path d="M28.956 44.6346L28.3827 44.7396C28.3433 44.6635 28.304 44.5875 28.2648 44.5113C28.2255 44.4353 28.1859 44.3654 28.146 44.3016C28.117 44.2543 28.0896 44.2147 28.0638 44.1827C28.038 44.1506 28.0089 44.1246 27.9762 44.1047C27.9449 44.0846 27.9094 44.0719 27.8696 44.0666C27.8298 44.0614 27.7843 44.0634 27.7332 44.0728L27.8273 44.5877C27.8322 44.6143 27.8417 44.6373 27.8557 44.6565C27.8698 44.6758 27.8902 44.689 27.9169 44.6962C27.9313 44.7001 27.9554 44.7025 27.989 44.7037C28.0225 44.7048 28.0497 44.7043 28.0704 44.7021L28.0871 44.7936L27.2792 44.9414L27.2625 44.85C27.2799 44.846 27.3052 44.8387 27.3385 44.8282C27.3718 44.8176 27.3955 44.8078 27.4099 44.7988C27.4333 44.7839 27.448 44.7653 27.4541 44.7428C27.4601 44.7203 27.4605 44.6949 27.4554 44.6667L27.2399 43.489C27.2349 43.4617 27.2263 43.4394 27.2141 43.4222C27.2019 43.405 27.1808 43.3919 27.1508 43.3829C27.1286 43.3765 27.1002 43.3721 27.0657 43.37C27.0312 43.3678 27.0064 43.3673 26.9914 43.3684L26.9747 43.2769L27.7825 43.1291L27.7993 43.2206C27.7778 43.2262 27.7525 43.2348 27.7235 43.2466C27.6944 43.2584 27.6723 43.2685 27.6572 43.2769C27.6317 43.2921 27.6165 43.3116 27.6119 43.3355C27.6071 43.3594 27.6071 43.3839 27.6117 43.4089L27.7129 43.9626L27.7816 43.95C27.8097 43.9449 27.8383 43.935 27.8672 43.9203C27.8962 43.9058 27.9205 43.8826 27.9401 43.8507C27.9806 43.7859 28.0083 43.7228 28.0231 43.6615C28.0379 43.6002 28.0491 43.5382 28.0564 43.4754C28.0654 43.4059 28.0741 43.3467 28.0826 43.2978C28.091 43.249 28.1153 43.1931 28.1553 43.13C28.1748 43.0981 28.201 43.0709 28.2339 43.0483C28.2667 43.0258 28.3045 43.0106 28.3473 43.0027C28.4175 42.9899 28.4766 42.9997 28.5247 43.0321C28.5726 43.0646 28.6023 43.1116 28.6136 43.1734C28.626 43.2415 28.6185 43.2976 28.5911 43.3418C28.5636 43.3861 28.5231 43.413 28.4698 43.4228C28.4361 43.429 28.4013 43.424 28.3653 43.4079C28.3293 43.3919 28.2835 43.3567 28.2279 43.3022C28.2113 43.3303 28.1996 43.371 28.193 43.4243C28.1865 43.4777 28.1799 43.5244 28.1734 43.5643C28.1602 43.6468 28.1443 43.7105 28.1258 43.7555C28.1071 43.8005 28.0834 43.8394 28.0546 43.8722L28.0584 43.8933C28.162 43.9042 28.2522 43.937 28.3289 43.9916C28.4057 44.0463 28.4728 44.1177 28.5303 44.2058C28.5555 44.244 28.5816 44.2847 28.6087 44.3279C28.6358 44.371 28.6594 44.4076 28.6795 44.4379C28.7105 44.4848 28.738 44.5145 28.7616 44.5272C28.7854 44.5398 28.8041 44.546 28.8179 44.5459C28.8347 44.5469 28.8553 44.547 28.8795 44.5462C28.9036 44.5454 28.9235 44.5444 28.9393 44.5432L28.956 44.6346Z" fill="#5E6163"/>
<path d="M29.4327 42.8703C29.3922 42.8744 29.3661 42.8769 29.3546 42.8779L29.3282 42.7886L30.6335 42.4035L30.6599 42.4927C30.6384 42.5007 30.6147 42.5112 30.5888 42.5242C30.5628 42.5373 30.54 42.5508 30.5204 42.5649C30.4973 42.5825 30.4844 42.6033 30.4819 42.6273C30.4793 42.6512 30.4817 42.6758 30.4891 42.7009L30.8283 43.8505C30.8364 43.8778 30.8477 43.8998 30.8622 43.9163C30.8767 43.9327 30.8989 43.9436 30.9287 43.9488C30.9474 43.9517 30.9733 43.9514 31.0062 43.9484C31.0391 43.9453 31.0658 43.9416 31.0861 43.9373L31.1124 44.0265L30.3206 44.2601L30.2943 44.1709C30.3122 44.1639 30.3373 44.1541 30.3695 44.1412C30.4015 44.1284 30.4236 44.117 30.4354 44.1068C30.4572 44.088 30.4701 44.0678 30.4742 44.0463C30.4782 44.0248 30.476 43.9996 30.4674 43.9706L30.088 42.685L29.7399 42.7878C29.8118 43.0642 29.8565 43.3066 29.8742 43.5153C29.8918 43.7239 29.8906 43.8975 29.8705 44.0361C29.8489 44.185 29.8138 44.2969 29.7652 44.3717C29.7166 44.4466 29.6628 44.4927 29.6039 44.5101C29.5581 44.5236 29.5187 44.5276 29.4858 44.5219C29.4529 44.5163 29.4254 44.5052 29.4034 44.4885C29.3806 44.472 29.3625 44.451 29.349 44.4256C29.3356 44.4001 29.3256 44.3763 29.319 44.3542C29.2974 44.281 29.3012 44.2192 29.3302 44.1688C29.3592 44.1184 29.4004 44.0852 29.4538 44.0695C29.4909 44.0586 29.531 44.0617 29.5743 44.0787C29.6177 44.0957 29.663 44.1213 29.7103 44.1555C29.7223 44.103 29.7322 44.0348 29.7398 43.9509C29.7475 43.867 29.7497 43.7783 29.7467 43.6847C29.7439 43.5794 29.7358 43.4763 29.7224 43.3754C29.709 43.2745 29.685 43.1654 29.6503 43.0479C29.6355 42.9976 29.6193 42.9572 29.6017 42.9267C29.5842 42.8963 29.5591 42.8776 29.5266 42.8706C29.5045 42.8664 29.4731 42.8662 29.4327 42.8703Z" fill="#5E6163"/>
<path d="M32.2539 42.8443L31.8157 42.3641L31.8507 43.012L32.2539 42.8443ZM33.2539 43.1695L32.4897 43.4875L32.454 43.4016C32.4884 43.3839 32.5271 43.3594 32.5704 43.328C32.6137 43.2967 32.6318 43.2725 32.6248 43.2556C32.6223 43.2498 32.6191 43.2434 32.615 43.2364C32.611 43.2295 32.6041 43.2208 32.5943 43.2102L32.3399 42.9364L31.8556 43.1379C31.857 43.1726 31.8594 43.213 31.8627 43.2589C31.8661 43.3049 31.8695 43.3457 31.8727 43.3813C31.8774 43.4276 31.8824 43.4604 31.8877 43.4797C31.8931 43.4991 31.8973 43.5124 31.9003 43.5197C31.9101 43.5432 31.9343 43.5566 31.9732 43.5598C32.012 43.5629 32.0702 43.5528 32.1476 43.5292L32.1834 43.6151L31.608 43.8545L31.5722 43.7686C31.5934 43.7581 31.6163 43.744 31.641 43.7264C31.6658 43.7088 31.6838 43.6912 31.695 43.6736C31.7148 43.6447 31.7286 43.6135 31.7367 43.58C31.7448 43.5465 31.7478 43.5095 31.7456 43.4691C31.7363 43.2311 31.7269 42.9925 31.7175 42.7536C31.7081 42.5147 31.698 42.2511 31.6871 41.9629L31.8848 41.8806C32.1612 42.1806 32.3788 42.4181 32.5374 42.5932C32.6961 42.7683 32.8293 42.9126 32.9369 43.0263C32.9546 43.0448 32.9738 43.0602 32.9945 43.0727C33.0151 43.0852 33.0411 43.0945 33.0721 43.1005C33.0955 43.1046 33.1206 43.1044 33.1474 43.1002C33.1742 43.0959 33.1978 43.0903 33.2182 43.0836L33.2539 43.1695Z" fill="#5E6163"/>
<path d="M34.4438 42.5955C34.3461 42.6487 34.2449 42.6809 34.1404 42.6921C34.0359 42.7031 33.9338 42.6924 33.8339 42.6598C33.736 42.6279 33.6429 42.5733 33.5544 42.4959C33.466 42.4185 33.3901 42.3218 33.3269 42.2058C33.2641 42.0904 33.2239 41.9738 33.2065 41.856C33.1891 41.7381 33.1933 41.6254 33.2193 41.5179C33.2448 41.4125 33.2918 41.3159 33.3603 41.2283C33.4288 41.1407 33.5141 41.069 33.6164 41.0134C33.6903 40.9731 33.7632 40.9465 33.835 40.9336C33.9069 40.9208 33.9706 40.9155 34.0263 40.9177L34.0533 40.8284L34.1351 40.7838L34.439 41.3217L34.3562 41.3667C34.219 41.2265 34.0963 41.1355 33.9883 41.0936C33.8803 41.0518 33.7789 41.0565 33.6844 41.108C33.5667 41.1721 33.5087 41.2788 33.5103 41.4279C33.512 41.5771 33.5698 41.7562 33.6836 41.9653C33.748 42.0834 33.8134 42.1786 33.8799 42.2508C33.9464 42.3229 34.0104 42.3753 34.0721 42.4079C34.1374 42.4413 34.2015 42.4569 34.2645 42.4548C34.3274 42.4526 34.389 42.4352 34.4491 42.4025C34.5368 42.3548 34.6005 42.2857 34.6401 42.1953C34.6798 42.1048 34.6985 41.9906 34.6963 41.8523L34.8068 41.8628C34.8133 41.9389 34.8125 42.0106 34.8045 42.0779C34.7965 42.1452 34.7794 42.2086 34.7532 42.268C34.7247 42.3335 34.6863 42.3933 34.6382 42.4475C34.5901 42.5018 34.5253 42.5511 34.4438 42.5955Z" fill="#5E6163"/>
<path d="M36.2112 41.4993C36.1195 41.5624 36.0222 41.6051 35.9195 41.627C35.8167 41.6491 35.714 41.6491 35.6113 41.627C35.5107 41.6055 35.4123 41.5609 35.3162 41.4932C35.2201 41.4255 35.1346 41.3372 35.0596 41.2285C34.9851 41.1203 34.933 41.0086 34.9033 40.8931C34.8736 40.7778 34.8661 40.6653 34.8807 40.5556C34.895 40.4481 34.9317 40.3471 34.9907 40.2528C35.0496 40.1585 35.127 40.0784 35.2228 40.0124C35.2922 39.9646 35.3619 39.9305 35.432 39.9102C35.5021 39.8899 35.565 39.8779 35.6206 39.8744L35.6381 39.7827L35.7147 39.7298L36.0732 40.233L35.9956 40.2864C35.8445 40.1613 35.7129 40.0836 35.6011 40.0532C35.4893 40.0229 35.389 40.0383 35.3004 40.0994C35.19 40.1754 35.1435 40.2876 35.1607 40.4357C35.178 40.5839 35.2541 40.756 35.3892 40.952C35.4656 41.0628 35.5407 41.1506 35.6143 41.2154C35.688 41.2802 35.7572 41.3256 35.8218 41.3516C35.8902 41.3779 35.9556 41.3868 36.0181 41.3781C36.0805 41.3694 36.1398 41.3457 36.1962 41.3068C36.2784 41.2501 36.3345 41.1748 36.3645 41.0808C36.3946 40.9868 36.4012 40.8711 36.3845 40.7338L36.4956 40.7326C36.51 40.8077 36.5167 40.879 36.5158 40.9468C36.5148 41.0146 36.5044 41.0795 36.4847 41.1414C36.463 41.2093 36.4312 41.2728 36.389 41.3318C36.3469 41.3908 36.2876 41.4466 36.2112 41.4993Z" fill="#5E6163"/>
<path d="M38.9408 39.1836L38.3387 39.7264L38.2764 39.6573C38.2902 39.6427 38.3068 39.6246 38.3261 39.6029C38.3454 39.5811 38.3583 39.5632 38.3646 39.5489C38.3763 39.5223 38.3793 39.4985 38.3737 39.4773C38.3681 39.4561 38.3551 39.4344 38.3349 39.4119L37.5316 38.5209C37.513 38.5003 37.4938 38.486 37.4741 38.478C37.4544 38.47 37.4295 38.4701 37.3992 38.4781C37.3791 38.4834 37.3547 38.4934 37.326 38.508C37.2974 38.5226 37.2753 38.5352 37.26 38.5458L37.1976 38.4768L37.8076 37.9268L37.8699 37.9959C37.854 38.0124 37.8372 38.0321 37.8195 38.0551C37.8017 38.078 37.787 38.1001 37.7753 38.1213C37.7621 38.1471 37.7595 38.1715 37.7675 38.1942C37.7756 38.2169 37.7883 38.238 37.8059 38.2575L38.6084 39.1476C38.6276 39.1689 38.6473 39.1838 38.6674 39.1923C38.6877 39.2009 38.7124 39.2011 38.7415 39.193C38.7596 39.1874 38.7828 39.1761 38.8112 39.1591C38.8396 39.1421 38.862 39.1272 38.8785 39.1145L38.9408 39.1836ZM37.7151 39.6295C37.633 39.5385 37.5477 39.4891 37.4592 39.4816C37.3706 39.474 37.2823 39.5099 37.1944 39.5892C37.1837 39.5988 37.1704 39.6117 37.1542 39.6279C37.138 39.6441 37.1276 39.6548 37.1228 39.6602L37.5579 40.1428C37.5835 40.1615 37.6149 40.1672 37.6524 40.1596C37.6899 40.1521 37.7261 40.1326 37.7611 40.1011C37.8247 40.0437 37.8528 39.9728 37.8454 39.8884C37.838 39.8039 37.7945 39.7177 37.7151 39.6295ZM38.0176 39.3335C38.0741 39.396 38.1119 39.4626 38.1312 39.533C38.1504 39.6033 38.1532 39.6737 38.1395 39.7437C38.1259 39.8107 38.101 39.8739 38.0647 39.9333C38.0284 39.9928 37.9838 40.0464 37.9308 40.0942L37.2532 40.7051L37.1909 40.636C37.2047 40.6204 37.2229 40.5994 37.2453 40.5733C37.2679 40.5471 37.2821 40.5271 37.2879 40.5133C37.2995 40.4878 37.3023 40.4643 37.2965 40.4429C37.2906 40.4214 37.2773 40.3992 37.2565 40.3762L36.4571 39.4896C36.4391 39.4695 36.4199 39.4549 36.3997 39.4459C36.3795 39.4368 36.3546 39.4365 36.3248 39.4451C36.3036 39.4515 36.2781 39.4627 36.2484 39.4787C36.2187 39.4949 36.1967 39.5077 36.1823 39.5174L36.1201 39.4483L36.7411 38.8883L36.8035 38.9574C36.7881 38.9734 36.77 38.9943 36.749 39.0202C36.7281 39.046 36.7121 39.0692 36.701 39.09C36.6878 39.1158 36.6851 39.1401 36.6931 39.1629C36.7011 39.1856 36.714 39.2067 36.7315 39.2262L37.0438 39.5725C37.0676 39.55 37.0936 39.5247 37.1216 39.4966C37.1497 39.4686 37.1776 39.4422 37.2051 39.4173C37.2725 39.3566 37.3421 39.3057 37.414 39.2643C37.4859 39.2232 37.5561 39.1968 37.6246 39.1853C37.6952 39.1741 37.7633 39.1793 37.8289 39.2009C37.8946 39.2226 37.9575 39.2667 38.0176 39.3335Z" fill="#5E6163"/>
<path d="M6.7662 34.1153H40.3517C36.5631 39.2766 30.4524 42.627 23.5588 42.627C16.6656 42.627 10.5548 39.2766 6.7662 34.1153Z" fill="#EC1C26"/>
<path d="M44.3772 21.8081C44.3772 22.6386 44.3286 23.4577 44.2336 24.2627H2.88432C2.78934 23.4577 2.74078 22.6386 2.74078 21.8081C2.74078 10.3106 12.0613 0.990105 23.5588 0.990105C35.0566 0.990105 44.3772 10.3106 44.3772 21.8081Z" fill="#EC1C26"/>
<path d="M15.1249 12.4473C15.1813 12.3881 15.2382 12.3298 15.2971 12.273C15.8372 11.6009 16.4569 10.9956 17.1429 10.4723C15.6835 9.10622 13.9703 8.72936 13.9703 8.72936C14.7169 9.13446 15.0143 10.8396 15.1249 12.4473Z" fill="white"/>
<path d="M31.8029 12.2734C31.8616 12.33 31.9183 12.3883 31.9746 12.4473C32.0852 10.8396 32.3826 9.13446 33.1292 8.72932C33.1292 8.72932 31.4161 9.10617 29.9567 10.4722C30.6428 10.9957 31.2627 11.601 31.8029 12.2734Z" fill="white"/>
<path d="M23.5498 12.6426C24.6275 11.4003 26.1985 10.6731 27.8536 10.6731C28.2215 10.6731 28.5804 10.7113 28.9292 10.7782C27.3868 9.75199 25.5373 9.15233 23.5498 9.15233C21.5624 9.15233 19.7129 9.75199 18.1705 10.7782C18.5192 10.7113 18.8781 10.6731 19.2461 10.6731C20.9009 10.6731 22.4719 11.4005 23.5498 12.6426Z" fill="white"/>
<path d="M29.4433 21.8419C29.1651 22.468 28.8674 23.334 28.7499 24.3477H18.3483C18.2316 23.3344 17.9343 22.468 17.6562 21.8419C18.1613 21.9889 18.6937 22.0719 19.2462 22.0719C20.3344 22.0719 21.3835 21.7521 22.283 21.183L23.5497 23.377L24.8164 21.183C25.7156 21.7521 26.7646 22.0719 27.8533 22.0719C28.4057 22.0719 28.9381 21.9889 29.4433 21.8419Z" fill="white"/>
<path d="M17.4991 24.3477H13.4792C13.2726 23.4924 13.1606 22.5447 13.2066 21.5144C13.2304 20.9743 13.2994 20.4108 13.4191 19.8265C13.5184 19.3426 13.6521 18.8447 13.8284 18.3323C13.8399 18.2991 13.8527 18.2654 13.8642 18.2322C14.3195 19.5453 15.2395 20.6408 16.4296 21.321C16.6068 21.5962 17.2989 22.7581 17.4991 24.3477Z" fill="white"/>
<path d="M33.6506 24.3477H29.58C29.7798 22.7632 30.48 21.609 30.6683 21.3219C31.8596 20.6417 32.7804 19.5449 33.2353 18.2305C33.2468 18.262 33.2596 18.294 33.2702 18.3255C33.4457 18.8298 33.5786 19.3183 33.68 19.7941C33.7988 20.3529 33.8716 20.8921 33.9027 21.41C33.9675 22.483 33.8601 23.4651 33.6506 24.3477Z" fill="white"/>
<path d="M19.246 12.9981C21.1096 12.9981 22.6204 14.5089 22.6204 16.3725C22.6204 18.2362 21.1096 19.7469 19.246 19.7469C17.3824 19.7469 15.8716 18.2362 15.8716 16.3725C15.8716 14.5089 17.3824 12.9981 19.246 12.9981ZM27.8534 12.9981C29.717 12.9981 31.2277 14.5089 31.2277 16.3725C31.2277 18.2362 29.717 19.7469 27.8534 19.7469C25.9898 19.7469 24.479 18.2362 24.479 16.3725C24.479 14.5089 25.9898 12.9981 27.8534 12.9981ZM15.1793 13.7344C14.8944 14.172 14.6809 14.6585 14.5486 15.1779C14.4511 15.5608 14.3937 15.9597 14.3937 16.3725C14.3937 16.5008 14.4031 16.6267 14.4129 16.7524C14.4418 17.1224 14.5084 17.4819 14.616 17.8241C14.8926 18.7043 15.4154 19.475 16.1011 20.0605C16.382 20.3004 16.6903 20.508 17.0209 20.6796C17.6883 21.0257 18.4438 21.2246 19.246 21.2246C20.8134 21.2246 22.2931 20.4574 23.2043 19.1723L23.5498 18.6848L23.8953 19.1723C24.8061 20.4574 26.2858 21.2246 27.8535 21.2246C28.6558 21.2246 29.4114 21.0257 30.0787 20.6794C30.4093 20.5079 30.7176 20.3001 30.9985 20.0602C31.6838 19.4748 32.2064 18.7044 32.483 17.8247C32.5907 17.4823 32.6574 17.1227 32.6863 16.7525C32.6961 16.6267 32.7056 16.5008 32.7056 16.3725C32.7056 15.9588 32.6479 15.5593 32.55 15.1757C32.4177 14.6573 32.2045 14.1716 31.9201 13.7347C31.7088 13.4099 31.4591 13.1134 31.1784 12.8484C30.5677 12.2719 29.8094 11.8531 28.9654 11.6541C28.6076 11.5698 28.2366 11.5205 27.8535 11.5205C26.2858 11.5205 24.8061 12.2877 23.8953 13.5727L23.5498 14.0602L23.2043 13.5727C22.2931 12.2877 20.8134 11.5205 19.246 11.5205C18.8629 11.5205 18.4918 11.5698 18.134 11.6541C17.2903 11.853 16.5323 12.2716 15.9218 12.8475C15.6408 13.1127 15.3909 13.4094 15.1793 13.7344Z" fill="white"/>
<path d="M29.431 16.2753C29.3607 16.3123 29.1831 15.8391 28.7389 15.5508C28.2141 15.21 27.5476 15.2765 27.0003 15.4221C27.0816 15.3186 27.3031 15.0669 27.6766 14.9711C27.9062 14.9123 28.094 14.9383 28.2078 14.9549C28.3223 14.9719 28.701 15.0333 29.0128 15.3255C29.3982 15.6871 29.5038 16.2365 29.431 16.2753ZM27.853 14.2641C26.6966 14.2641 25.7433 15.2147 25.7433 16.3732C25.7433 17.5377 26.6885 18.4824 27.853 18.4824C29.0111 18.4824 29.9643 17.5296 29.9643 16.3732C29.9643 15.2147 29.0111 14.2641 27.853 14.2641Z" fill="white"/>
<path d="M21.2416 16.2743C21.1713 16.3114 20.9937 15.8381 20.5495 15.5498C20.0248 15.2091 19.3582 15.2755 18.8109 15.4212C18.8922 15.3177 19.1137 15.0659 19.4872 14.9701C19.7168 14.9113 19.9046 14.9373 20.0184 14.9539C20.1329 14.971 20.5116 15.0323 20.8234 15.3245C21.2088 15.6861 21.3145 16.2355 21.2416 16.2743ZM19.6636 14.2631C18.5072 14.2631 17.554 15.2137 17.554 16.3723C17.554 17.5367 18.4991 18.4814 19.6636 18.4814C20.8217 18.4814 21.7749 17.5286 21.7749 16.3723C21.7749 15.2137 20.8217 14.2631 19.6636 14.2631Z" fill="white"/>
<path d="M29.5815 8.10654C29.6462 8.06131 29.7243 8.02127 29.7119 7.92523C29.6899 7.7543 29.453 7.71814 29.3073 7.69795C29.2913 7.17181 29.1925 6.65929 29.2192 6.12113C30.043 5.88658 30.8805 5.72374 31.716 5.53872C29.1015 4.04798 26.1458 2.86519 23.3225 1.8212C20.4802 2.92239 17.6282 3.99892 14.7953 5.12425C16.3826 5.65858 17.9664 6.20291 19.5492 6.75018C19.4678 7.67423 19.3606 8.59104 19.1999 9.50482C21.7867 8.15634 24.8601 8.03972 27.4454 9.46384C27.2818 8.60671 27.1251 7.7451 27.0032 6.88111C27.6567 6.64319 28.3058 6.37597 28.9762 6.19026C28.9792 6.71377 29.1342 7.19161 29.1751 7.69506C29.027 7.68607 28.835 7.71784 28.8227 7.89243C28.8155 7.99419 28.9016 8.03252 28.9652 8.08469C28.6411 8.63022 28.5842 9.28593 28.5294 9.90676C28.5876 9.5748 28.6469 9.24304 28.7093 8.9118C28.6719 9.28627 28.6301 9.66015 28.5876 10.0341C28.6527 9.67046 28.7181 9.30706 28.7883 8.94438C28.7481 9.32614 28.7034 9.70734 28.6588 10.0886C28.7246 9.70671 28.7905 9.32486 28.8607 8.94374C28.8235 9.33193 28.7804 9.7194 28.7374 10.107C28.8044 9.71889 28.8711 9.33083 28.9425 8.94353C28.9049 9.33551 28.8611 9.72753 28.8178 10.1184C28.8841 9.73575 28.953 9.32955 29.0219 8.96261C28.9999 9.22107 28.9201 9.92959 28.9026 10.0878C28.8851 10.246 28.8987 10.1278 28.8987 10.1276C28.9562 9.76272 29.0197 9.34424 29.0804 8.95874C29.0537 9.35344 29.0155 9.74879 28.979 10.1434C28.9795 10.1435 28.9799 10.1435 28.9803 10.1435C29.0341 9.75241 29.0881 9.36137 29.1401 8.97007C29.1228 9.36277 29.0908 9.75415 29.0609 10.1461C29.0614 10.1459 29.0617 10.1465 29.0622 10.1458C29.1072 9.7602 29.1543 9.35136 29.1929 8.97999C29.1953 9.23653 29.1541 9.93901 29.1455 10.0962C29.1369 10.2534 29.1436 10.1356 29.1436 10.1355C29.1784 9.77537 29.2179 9.33934 29.2438 8.97301C29.2624 9.23052 29.2465 9.94028 29.2437 10.099C29.241 10.2573 29.2431 10.1389 29.2431 10.1389C29.2687 9.77541 29.2972 9.35889 29.3088 8.97399C29.3328 9.36648 29.3273 9.76088 29.3259 10.1547C29.3266 10.1547 29.3273 10.1547 29.328 10.1547C29.3426 9.76114 29.3603 9.36784 29.3554 8.97394C29.3948 9.36729 29.3992 9.76229 29.4084 10.1573C29.4088 10.1574 29.4092 10.1574 29.4096 10.1574C29.4159 9.76365 29.4289 9.36907 29.4088 8.97565C29.465 9.36724 29.4726 9.76514 29.4902 10.16C29.4906 10.1598 29.4912 10.1604 29.4915 10.1597C29.4918 9.76795 29.499 9.34995 29.4693 8.97416C29.5285 9.22929 29.5603 9.94999 29.57 10.1094C29.5798 10.2687 29.573 10.1497 29.573 10.1495C29.5675 9.77894 29.5684 9.34948 29.5267 8.95993C29.6042 9.34671 29.6234 9.75237 29.6546 10.1458C29.6473 9.7487 29.6493 9.34463 29.6075 8.94932C29.685 9.33709 29.7046 9.74551 29.7358 10.1394C29.7286 9.74444 29.731 9.34032 29.6894 8.94749C29.7658 9.32972 29.7851 9.7375 29.8159 10.1261C29.8062 9.7332 29.7895 9.33837 29.7621 8.94626C29.8165 9.32077 29.8538 9.69989 29.8918 10.0764C29.8786 9.68877 29.8631 9.30054 29.8411 8.91333C29.8884 9.2801 29.9232 9.64886 29.9636 10.0164C29.9489 9.35519 29.9418 8.68278 29.5815 8.10654Z" fill="white"/>
</g>
</svg>
