<svg width="56" height="56" viewBox="0 0 56 56" fill="none" xmlns="http://www.w3.org/2000/svg">
<rect width="56" height="56" rx="28" fill="#3572C1" fill-opacity="0.2"/>
<path d="M24.45 26.5875C24.325 26.575 24.175 26.575 24.0375 26.5875C21.0625 26.4875 18.7 24.05 18.7 21.05C18.7 17.9875 21.175 15.5 24.25 15.5C27.3125 15.5 29.8 17.9875 29.8 21.05C29.7875 24.05 27.425 26.4875 24.45 26.5875Z" stroke="#3572C1" stroke-width="1.5" stroke-linecap="round" stroke-linejoin="round"/>
<path d="M33.5125 18C35.9375 18 37.8875 19.9625 37.8875 22.375C37.8875 24.7375 36.0125 26.6625 33.675 26.75C33.575 26.7375 33.4625 26.7375 33.35 26.75" stroke="#3572C1" stroke-width="1.5" stroke-linecap="round" stroke-linejoin="round"/>
<path d="M18.2 31.2C15.175 33.225 15.175 36.525 18.2 38.5375C21.6375 40.8375 27.275 40.8375 30.7125 38.5375C33.7375 36.5125 33.7375 33.2125 30.7125 31.2C27.2875 28.9125 21.65 28.9125 18.2 31.2Z" stroke="#3572C1" stroke-width="1.5" stroke-linecap="round" stroke-linejoin="round"/>
<path d="M35.925 38C36.825 37.8125 37.675 37.45 38.375 36.9125C40.325 35.45 40.325 33.0375 38.375 31.575C37.6875 31.05 36.85 30.7 35.9625 30.5" stroke="#3572C1" stroke-width="1.5" stroke-linecap="round" stroke-linejoin="round"/>
</svg>
