<svg width="56" height="56" viewBox="0 0 56 56" fill="none" xmlns="http://www.w3.org/2000/svg">
<rect width="56" height="56" rx="28" fill="#3572C1" fill-opacity="0.2"/>
<path d="M38.625 32.7848C35.4981 40.1949 25.3301 42.3543 19.5018 36.5802C13.7869 30.9184 15.5562 20.661 23.0707 17.375" stroke="#3572C1" stroke-width="1.5" stroke-linecap="round"/>
<path d="M35.1039 28.625C37.4634 28.625 38.6432 28.625 39.4051 27.5687C39.4336 27.5293 39.4809 27.4584 39.5065 27.417C40.1908 26.3089 39.8381 25.4575 39.1328 23.7547C38.4933 22.2107 37.5558 20.8077 36.3741 19.6259C35.1923 18.4441 33.7893 17.5067 32.2452 16.8671C30.5425 16.1618 29.6911 15.8092 28.583 16.4935C28.5415 16.519 28.4707 16.5664 28.4312 16.5948C27.375 17.3568 27.375 18.5365 27.375 20.8961V23.5343C27.375 25.9341 27.375 27.134 28.1205 27.8795C28.866 28.625 30.0659 28.625 32.4656 28.625H35.1039Z" stroke="#3572C1" stroke-width="1.5"/>
</svg>
