<svg width="80" height="80" viewBox="0 0 80 80" fill="none" xmlns="http://www.w3.org/2000/svg">
<rect width="80" height="80" rx="40" fill="#3572C1" fill-opacity="0.1"/>
<circle cx="40" cy="40" r="31.5" stroke="#3572C1"/>
<path d="M32.3501 39.8909C39.5363 26.4973 48.4845 26.3429 52.0603 27.9398C53.6573 31.5156 53.5028 40.4638 40.1093 47.6501C39.9704 46.8516 39.1979 44.7599 37.2191 42.7811C35.2403 40.8022 33.1486 40.0298 32.3501 39.8909Z" stroke="#3572C1" stroke-width="1.5" stroke-linecap="round" stroke-linejoin="round"/>
<path d="M41.9126 47.0125C44.5171 48.2875 44.7952 50.5737 45.156 52.75C45.156 52.75 50.6111 48.7174 47.1217 43.1875" stroke="#3572C1" stroke-width="1.5" stroke-linecap="round" stroke-linejoin="round"/>
<path d="M32.9875 38.1964C31.7125 35.5918 29.4263 35.3138 27.2501 34.9529C27.2501 34.9529 31.2826 29.4979 36.8125 32.9873" stroke="#3572C1" stroke-width="1.5" stroke-linecap="round" stroke-linejoin="round"/>
<path d="M31.5257 44.1243C30.8006 44.8494 29.5679 46.9522 30.438 49.5626C33.0484 50.4327 35.1512 49.2 35.8763 48.4749" stroke="#3572C1" stroke-width="1.5" stroke-linecap="round" stroke-linejoin="round"/>
<path d="M47.5095 34.971C47.5095 33.6018 46.3995 32.4919 45.0303 32.4919C43.6611 32.4919 42.5511 33.6018 42.5511 34.971C42.5511 36.3402 43.6611 37.4502 45.0303 37.4502C46.3995 37.4502 47.5095 36.3402 47.5095 34.971Z" stroke="#3572C1" stroke-width="1.5"/>
</svg>
