<svg width="80" height="80" viewBox="0 0 80 80" fill="none" xmlns="http://www.w3.org/2000/svg">
<rect width="80" height="80" rx="40" fill="#3572C1" fill-opacity="0.1"/>
<circle cx="40" cy="40" r="31.5" stroke="#3572C1"/>
<path d="M50.3416 34.2201V41.516C50.3416 45.8793 47.8483 47.7492 44.1083 47.7492H31.6558C31.0183 47.7492 30.4091 47.6927 29.8425 47.5652C29.4883 47.5085 29.1483 47.4093 28.8367 47.296C26.7117 46.5027 25.4225 44.661 25.4225 41.516V34.2201C25.4225 29.8568 27.9158 27.9868 31.6558 27.9868H44.1083C47.2817 27.9868 49.5625 29.3326 50.1717 32.4068C50.2708 32.9735 50.3416 33.5543 50.3416 34.2201Z" stroke="#3572C1" stroke-width="1.5" stroke-miterlimit="10" stroke-linecap="round" stroke-linejoin="round"/>
<path d="M54.5932 38.4703V45.7661C54.5932 50.1295 52.0999 51.9994 48.3599 51.9994H35.9074C34.859 51.9994 33.9099 51.8578 33.0882 51.5462C31.4024 50.9228 30.2549 49.6337 29.844 47.5653C30.4107 47.6928 31.0199 47.7494 31.6574 47.7494H44.1099C47.8499 47.7494 50.3432 45.8795 50.3432 41.5161V34.2203C50.3432 33.5544 50.2865 32.9595 50.1732 32.407C52.8649 32.9736 54.5932 34.8719 54.5932 38.4703Z" stroke="#3572C1" stroke-width="1.5" stroke-miterlimit="10" stroke-linecap="round" stroke-linejoin="round"/>
<path d="M37.8728 41.6151C39.9383 41.6151 41.6128 39.9406 41.6128 37.875C41.6128 35.8095 39.9383 34.135 37.8728 34.135C35.8073 34.135 34.1328 35.8095 34.1328 37.875C34.1328 39.9406 35.8073 41.6151 37.8728 41.6151Z" stroke="#3572C1" stroke-width="1.5" stroke-miterlimit="10" stroke-linecap="round" stroke-linejoin="round"/>
<path d="M29.7717 34.7585V40.9919" stroke="#3572C1" stroke-width="1.5" stroke-miterlimit="10" stroke-linecap="round" stroke-linejoin="round"/>
<path d="M45.9807 34.7588V40.9922" stroke="#3572C1" stroke-width="1.5" stroke-miterlimit="10" stroke-linecap="round" stroke-linejoin="round"/>
</svg>
