<svg width="80" height="80" viewBox="0 0 80 80" fill="none" xmlns="http://www.w3.org/2000/svg">
<rect width="80" height="80" rx="40" fill="#3572C1" fill-opacity="0.1"/>
<circle cx="40" cy="40" r="31.5" stroke="#3572C1"/>
<path d="M49.9167 35.7502C49.9167 37.8043 49.3075 39.6885 48.2592 41.261C46.7292 43.5277 44.3067 45.1285 41.4875 45.5393C41.0058 45.6243 40.51 45.6668 40 45.6668C39.49 45.6668 38.9942 45.6243 38.5125 45.5393C35.6933 45.1285 33.2708 43.5277 31.7408 41.261C30.6925 39.6885 30.0833 37.8043 30.0833 35.7502C30.0833 30.2677 34.5175 25.8335 40 25.8335C45.4825 25.8335 49.9167 30.2677 49.9167 35.7502Z" stroke="#3572C1" stroke-width="1.5" stroke-linecap="round" stroke-linejoin="round"/>
<path d="M53.1042 49.1657L50.7667 49.7182C50.2425 49.8457 49.8317 50.2424 49.7183 50.7666L49.2225 52.8491C48.9533 53.9824 47.5083 54.3224 46.7575 53.4299L40 45.6666L33.2425 53.4441C32.4917 54.3366 31.0467 53.9966 30.7775 52.8632L30.2817 50.7807C30.1542 50.2566 29.7433 49.8457 29.2333 49.7324L26.8958 49.1799C25.8192 48.9249 25.4367 47.5791 26.2158 46.7999L31.7408 41.2749C33.2708 43.5416 35.6933 45.1424 38.5125 45.5533C38.9942 45.6383 39.49 45.6808 40 45.6808C40.51 45.6808 41.0058 45.6383 41.4875 45.5533C44.3067 45.1424 46.7292 43.5416 48.2592 41.2749L53.7842 46.7999C54.5633 47.5649 54.1808 48.9107 53.1042 49.1657Z" stroke="#3572C1" stroke-width="1.5" stroke-linecap="round" stroke-linejoin="round"/>
<path d="M40.8217 31.4715L41.6575 33.1432C41.7708 33.3698 42.0683 33.5965 42.3375 33.639L43.8533 33.894C44.8167 34.0498 45.0433 34.7582 44.3492 35.4523L43.1733 36.6281C42.975 36.8265 42.8617 37.209 42.9325 37.4923L43.2725 38.9515C43.5417 40.099 42.9325 40.5523 41.9125 39.9431L40.4958 39.1073C40.2408 38.9515 39.8158 38.9515 39.5608 39.1073L38.1442 39.9431C37.1242 40.5381 36.515 40.099 36.7842 38.9515L37.1242 37.4923C37.1808 37.2232 37.0817 36.8265 36.8833 36.6281L35.7075 35.4523C35.0133 34.7582 35.24 34.064 36.2033 33.894L37.7192 33.639C37.9742 33.5965 38.2717 33.3698 38.385 33.1432L39.2208 31.4715C39.6317 30.5648 40.3683 30.5648 40.8217 31.4715Z" stroke="#3572C1" stroke-width="1.5" stroke-linecap="round" stroke-linejoin="round"/>
</svg>
