<svg width="80" height="80" viewBox="0 0 80 80" fill="none" xmlns="http://www.w3.org/2000/svg">
<rect width="80" height="80" rx="40" fill="#3572C1" fill-opacity="0.1"/>
<circle cx="40" cy="40" r="31.5" stroke="#3572C1"/>
<path d="M53.685 37.7902L52.2967 43.7119C51.1067 48.826 48.755 50.8944 44.335 50.4694C43.6267 50.4127 42.8617 50.2852 42.04 50.0869L39.66 49.5202C33.7525 48.1177 31.925 45.1994 33.3133 39.2777L34.7017 33.3419C34.985 32.1377 35.325 31.0894 35.75 30.2252C37.4075 26.7969 40.2267 25.876 44.9583 26.9952L47.3242 27.5477C53.26 28.936 55.0733 31.8685 53.685 37.7902Z" stroke="#3572C1" stroke-width="1.5" stroke-linecap="round" stroke-linejoin="round"/>
<path d="M44.335 50.4693C43.4567 51.0643 42.3517 51.5601 41.0058 51.9993L38.7675 52.7359C33.1433 54.5493 30.1825 53.0334 28.355 47.4093L26.5417 41.8134C24.7283 36.1893 26.23 33.2143 31.8542 31.4009L34.0925 30.6643C34.6733 30.4801 35.2258 30.3243 35.75 30.2251C35.325 31.0893 34.985 32.1376 34.7017 33.3418L33.3133 39.2776C31.925 45.1993 33.7525 48.1176 39.66 49.5201L42.04 50.0868C42.8617 50.2851 43.6267 50.4126 44.335 50.4693Z" stroke="#3572C1" stroke-width="1.5" stroke-linecap="round" stroke-linejoin="round"/>
<path d="M40.9067 35.084L47.7775 36.8265" stroke="#3572C1" stroke-width="1.5" stroke-linecap="round" stroke-linejoin="round"/>
<path d="M39.5183 40.5669L43.6266 41.6152" stroke="#3572C1" stroke-width="1.5" stroke-linecap="round" stroke-linejoin="round"/>
</svg>
