<svg width="80" height="80" viewBox="0 0 80 80" fill="none" xmlns="http://www.w3.org/2000/svg">
<rect width="80" height="80" rx="40" fill="#3572C1" fill-opacity="0.1"/>
<circle cx="40" cy="40" r="31.5" stroke="#3572C1"/>
<path d="M38.2292 26.4706C39.2067 25.6348 40.8075 25.6348 41.7992 26.4706L44.0375 28.3974C44.4625 28.7658 45.2558 29.0632 45.8225 29.0632H48.2308C49.7325 29.0632 50.965 30.2956 50.965 31.7973V34.2057C50.965 34.7582 51.2625 35.5658 51.6308 35.9908L53.5575 38.229C54.3933 39.2065 54.3933 40.8074 53.5575 41.7991L51.6308 44.0373C51.2625 44.4623 50.965 45.2557 50.965 45.8223V48.2308C50.965 49.7324 49.7325 50.9648 48.2308 50.9648H45.8225C45.27 50.9648 44.4625 51.2623 44.0375 51.6306L41.7992 53.5573C40.8217 54.3931 39.2208 54.3931 38.2292 53.5573L35.9909 51.6306C35.5659 51.2623 34.7725 50.9648 34.2058 50.9648H31.755C30.2533 50.9648 29.0208 49.7324 29.0208 48.2308V45.8082C29.0208 45.2557 28.7233 44.4623 28.3692 44.0373L26.4567 41.7849C25.635 40.8074 25.635 39.2207 26.4567 38.2432L28.3692 35.9908C28.7233 35.5658 29.0208 34.7724 29.0208 34.2199V31.7973C29.0208 30.2956 30.2533 29.0632 31.755 29.0632H34.2058C34.7583 29.0632 35.5659 28.7658 35.9909 28.3974L38.2292 26.4706Z" stroke="#3572C1" stroke-width="1.5" stroke-linecap="round" stroke-linejoin="round"/>
<path d="M37.0109 43.9948L39.065 45.5815C39.3342 45.8506 39.9292 45.9782 40.3259 45.9782H42.8333C43.6267 45.9782 44.4908 45.3832 44.6892 44.5899L46.2758 39.7448C46.6017 38.824 46.0067 38.0165 45.015 38.0165H42.3659C41.9692 38.0165 41.6434 37.6908 41.7 37.2233L42.0258 35.0983C42.1533 34.5033 41.7567 33.8374 41.1617 33.6391C40.6375 33.4407 39.9717 33.7098 39.7025 34.1065L36.9825 38.144" stroke="#3572C1" stroke-width="1.5" stroke-miterlimit="10"/>
<path d="M33.625 43.9947V37.5065C33.625 36.5715 34.0217 36.2456 34.9567 36.2456H35.6225C36.5433 36.2456 36.9542 36.5715 36.9542 37.5065V43.9947C36.9542 44.9156 36.5575 45.2556 35.6225 45.2556H34.9567C34.0217 45.2556 33.625 44.9297 33.625 43.9947Z" stroke="#3572C1" stroke-width="1.5" stroke-linecap="round" stroke-linejoin="round"/>
</svg>
