<svg width="139" height="271" viewBox="0 0 139 271" fill="none" xmlns="http://www.w3.org/2000/svg">
<mask id="mask0_49_405" style="mask-type:alpha" maskUnits="userSpaceOnUse" x="0" y="0" width="139" height="271">
<rect y="271" width="271" height="139" transform="rotate(-90 0 271)" fill="#D9D9D9"/>
</mask>
<g mask="url(#mask0_49_405)">
<g opacity="0.2">
<mask id="path-2-inside-1_49_405" fill="white">
<path d="M146.087 265.49C146.29 268.799 143.771 271.659 140.457 271.713C121.306 272.026 102.285 268.256 84.6774 260.628C67.0798 253.005 51.3473 241.723 38.5202 227.566C36.2897 225.104 36.6648 221.3 39.232 219.192L71.4282 192.748C73.9824 190.65 77.7366 191.031 80.027 193.414C87.4141 201.101 96.2756 207.263 106.107 211.522C115.937 215.781 126.501 218.035 137.179 218.177C140.492 218.221 143.338 220.714 143.541 224.02L146.087 265.49Z"/>
</mask>
<path d="M146.087 265.49C146.29 268.799 143.771 271.659 140.457 271.713C121.306 272.026 102.285 268.256 84.6774 260.628C67.0798 253.005 51.3473 241.723 38.5202 227.566C36.2897 225.104 36.6648 221.3 39.232 219.192L71.4282 192.748C73.9824 190.65 77.7366 191.031 80.027 193.414C87.4141 201.101 96.2756 207.263 106.107 211.522C115.937 215.781 126.501 218.035 137.179 218.177C140.492 218.221 143.338 220.714 143.541 224.02L146.087 265.49Z" stroke="#3572C1" stroke-width="78.5697" mask="url(#path-2-inside-1_49_405)"/>
</g>
<mask id="path-3-inside-2_49_405" fill="white">
<path d="M36.946 215.379C34.3405 217.413 30.5685 216.964 28.6432 214.276C19.161 201.041 12.1685 186.18 8.02529 170.417C3.37538 152.726 2.41283 134.273 5.19708 116.197C7.98133 98.1205 14.4533 80.8043 24.2137 65.3163C32.9118 51.5141 44.057 39.4247 57.0887 29.6301C59.7312 27.644 63.4648 28.347 65.3409 31.0693L88.9519 65.3297C90.8369 68.0648 90.1252 71.7935 87.5317 73.8682C80.5353 79.4648 74.5143 86.1952 69.7282 93.7898C63.872 103.083 59.9888 113.472 58.3183 124.318C56.6477 135.164 57.2252 146.235 60.0152 156.85C62.2946 165.522 66.0112 173.739 70.9988 181.166C72.8509 183.924 72.4124 187.695 69.794 189.739L36.946 215.379Z"/>
</mask>
<path d="M36.946 215.379C34.3405 217.413 30.5685 216.964 28.6432 214.276C19.161 201.041 12.1685 186.18 8.02529 170.417C3.37538 152.726 2.41283 134.273 5.19708 116.197C7.98133 98.1205 14.4533 80.8043 24.2137 65.3163C32.9118 51.5141 44.057 39.4247 57.0887 29.6301C59.7312 27.644 63.4648 28.347 65.3409 31.0693L88.9519 65.3297C90.8369 68.0648 90.1252 71.7935 87.5317 73.8682C80.5353 79.4648 74.5143 86.1952 69.7282 93.7898C63.872 103.083 59.9888 113.472 58.3183 124.318C56.6477 135.164 57.2252 146.235 60.0152 156.85C62.2946 165.522 66.0112 173.739 70.9988 181.166C72.8509 183.924 72.4124 187.695 69.794 189.739L36.946 215.379Z" stroke="#3572C1" stroke-width="78.5697" mask="url(#path-3-inside-2_49_405)"/>
<g opacity="0.6">
<mask id="path-4-inside-3_49_405" fill="white">
<path d="M68.4934 28.8698C66.6313 26.1192 67.3517 22.3668 70.1888 20.6393C86.525 10.6923 104.828 4.32621 123.876 1.99587C142.928 -0.33489 162.236 1.43145 180.505 7.14782C183.673 8.13901 185.278 11.6026 184.14 14.7203L169.876 53.7667C168.741 56.8741 165.309 58.4533 162.124 57.5586C151.843 54.6707 141.068 53.8421 130.426 55.144C119.783 56.446 109.529 59.8476 100.253 65.1286C97.3805 66.7643 93.6721 66.0629 91.8189 63.3254L68.4934 28.8698Z"/>
</mask>
<path d="M68.4934 28.8698C66.6313 26.1192 67.3517 22.3668 70.1888 20.6393C86.525 10.6923 104.828 4.32621 123.876 1.99587C142.928 -0.33489 162.236 1.43145 180.505 7.14782C183.673 8.13901 185.278 11.6026 184.14 14.7203L169.876 53.7667C168.741 56.8741 165.309 58.4533 162.124 57.5586C151.843 54.6707 141.068 53.8421 130.426 55.144C119.783 56.446 109.529 59.8476 100.253 65.1286C97.3805 66.7643 93.6721 66.0629 91.8189 63.3254L68.4934 28.8698Z" stroke="#3572C1" stroke-width="78.5697" mask="url(#path-4-inside-3_49_405)"/>
</g>
</g>
</svg>
