<svg width="50" height="50" viewBox="0 0 50 50" fill="none" xmlns="http://www.w3.org/2000/svg">
<rect width="50" height="50" rx="25" fill="#3572C1" fill-opacity="0.1"/>
<path d="M18.0999 24.027C22.3949 22.0513 25.2589 20.7487 26.6919 20.1194C30.7834 18.3226 31.6335 18.0105 32.1877 18.0001C32.3095 17.9979 32.582 18.0298 32.7586 18.1811C32.9076 18.3088 32.9486 18.4813 32.9683 18.6023C32.9879 18.7234 33.0123 18.9992 32.9929 19.2147C32.7712 21.6744 31.8118 27.6434 31.3237 30.3983C31.1172 31.564 30.7105 31.9548 30.3168 31.9931C29.4613 32.0762 28.8116 31.3961 27.9829 30.8226C26.6862 29.9251 25.9537 29.3664 24.695 28.4907C23.2404 27.4786 24.1834 26.9224 25.0124 26.0133C25.2293 25.7754 28.999 22.1552 29.0719 21.8268C29.0811 21.7857 29.0895 21.6326 29.0034 21.5517C28.9172 21.4709 28.7901 21.4985 28.6983 21.5205C28.5683 21.5517 26.4968 22.9973 22.4839 25.8573C21.8959 26.2836 21.3633 26.4913 20.8862 26.4805C20.3601 26.4685 19.3482 26.1664 18.596 25.9083C17.6733 25.5916 16.94 25.4242 17.0039 24.8864C17.0371 24.6063 17.4025 24.3198 18.0999 24.027Z" fill="#3572C1"/>
</svg>
