<svg width="50" height="50" viewBox="0 0 50 50" fill="none" xmlns="http://www.w3.org/2000/svg">
<rect width="50" height="50" rx="25" fill="#3572C1" fill-opacity="0.1"/>
<path d="M25.8891 32C19.0559 32 15.1598 26.7542 15 18.0112H18.4366C18.5465 24.4227 21.0639 27.1353 23.0619 27.6958V18.0112H26.2887V23.5372C28.2567 23.3018 30.3347 20.7798 31.034 18H34.2507C33.9885 19.439 33.4645 20.8018 32.7116 22.0033C31.9588 23.2048 30.9932 24.2193 29.8751 24.9832C31.1228 25.68 32.2247 26.6656 33.1081 27.8751C33.9914 29.0846 34.6363 30.4905 35 32H31.4535C30.6943 29.3435 28.7962 27.281 26.2887 27.0008V32H25.8991H25.8891Z" fill="#3572C1"/>
</svg>
