<svg width="715" height="694" viewBox="0 0 715 694" fill="none" xmlns="http://www.w3.org/2000/svg">
<path opacity="0.1" d="M27.4325 581.485C27.4325 612.919 38.3656 642.874 38.3656 674.491C39.3452 674.818 40.6356 679.356 40.987 680.591L41.0229 680.717C41.6029 682.747 40.2428 684.551 42.4655 685.728C47.3304 688.304 55.1972 686.791 60.5353 686.791C67.0128 686.791 82.7826 683.753 87.8679 688.461C93.3005 693.492 95.8912 704.038 101.99 707.29C110.348 711.748 118.514 711.39 127.804 711.39C151.181 711.39 174.416 711.284 197.73 709.265C226.3 706.79 254.095 699.092 282.688 696.965C309.117 694.999 335.719 697.213 362.181 695.674C392.325 693.922 421.811 695.63 451.695 699.85C495.202 705.994 539.264 702.758 582.284 712.833C612.269 719.856 641.172 732.406 672.177 734.319C684.595 735.086 697.404 734.955 709.836 734.319C721.731 733.711 738.778 733.567 748.709 726.12C760.584 717.213 767.78 699.623 773.688 686.563C783.206 665.524 793.589 644.251 798.211 621.497C808.233 572.157 806.278 520.37 804.74 470.256C801.893 377.443 795.783 284.735 790.011 192.072C788.89 174.074 788.186 156.234 782.647 139.001C781.359 134.996 781.516 131.644 778.395 128.523C759.623 109.752 743.426 88.9776 718.719 77.3507C709.05 72.8005 698.155 71.7138 687.818 69.8342C675.46 67.5874 663.996 63.6085 651.298 63.6085C629.363 63.6085 606.39 64.5974 584.713 60.8752C531.854 51.7983 483.72 25.5262 430.892 16.0802C413.661 12.9991 396.845 9.08687 379.871 4.84343C362.962 0.616193 346.609 0.743545 329.306 0.743545C296.304 0.743545 237.206 15.1775 235.236 57.5346C233.772 89.0081 246.301 133.873 213.294 152.439C198.692 160.653 185.308 166.446 168.195 167.396C152.492 168.269 108.344 168.164 92.7269 170.116C61.4478 174.026 20.7589 184.526 5.26271 215.518C-0.503425 227.051 0.657777 240.389 0.859125 252.873C1.09457 267.47 1.90183 284.069 5.64233 298.199C10.0834 314.977 23.0991 328.561 27.4325 345.5C32.3599 364.762 35.2306 385.764 29.4824 405.404C25.6939 418.348 20.7679 430.878 17.1068 443.897C7.90792 476.611 25.4597 508.234 26.7492 542.536C27.2375 555.525 27.4325 568.487 27.4325 581.485Z" fill="#5D8ECD"/>
</svg>
