<svg width="122" height="22" viewBox="0 0 122 22" fill="none" xmlns="http://www.w3.org/2000/svg">
<path d="M10.1288 1.54557C10.5114 0.86693 11.4886 0.86693 11.8712 1.54557L14.2667 5.79573C14.4094 6.04891 14.6552 6.22748 14.9401 6.28496L19.7225 7.24991C20.4861 7.40399 20.7881 8.33343 20.2609 8.90693L16.959 12.4986C16.7623 12.7126 16.6685 13.0015 16.7018 13.2902L17.2619 18.1367C17.3514 18.9106 16.5608 19.485 15.8524 19.1608L11.4162 17.1305C11.1519 17.0095 10.8481 17.0095 10.5838 17.1305L6.1476 19.1608C5.43925 19.485 4.64861 18.9106 4.73805 18.1367L5.29818 13.2902C5.33154 13.0015 5.23766 12.7126 5.04098 12.4986L1.73911 8.90693C1.21188 8.33343 1.51388 7.40399 2.27751 7.24991L7.05992 6.28496C7.3448 6.22748 7.59058 6.04891 7.73328 5.79573L10.1288 1.54557Z" fill="#EEC32A"/>
<path d="M35.1288 1.54557C35.5114 0.86693 36.4886 0.86693 36.8712 1.54557L39.2667 5.79573C39.4094 6.04891 39.6552 6.22748 39.9401 6.28496L44.7225 7.24991C45.4861 7.40399 45.7881 8.33343 45.2609 8.90693L41.959 12.4986C41.7623 12.7126 41.6685 13.0015 41.7018 13.2902L42.2619 18.1367C42.3514 18.9106 41.5608 19.485 40.8524 19.1608L36.4162 17.1305C36.1519 17.0095 35.8481 17.0095 35.5838 17.1305L31.1476 19.1608C30.4392 19.485 29.6486 18.9106 29.7381 18.1367L30.2982 13.2902C30.3315 13.0015 30.2377 12.7126 30.041 12.4986L26.7391 8.90693C26.2119 8.33343 26.5139 7.40399 27.2775 7.24991L32.0599 6.28496C32.3448 6.22748 32.5906 6.04891 32.7333 5.79573L35.1288 1.54557Z" fill="#EEC32A"/>
<path d="M60.1288 1.54557C60.5114 0.86693 61.4886 0.86693 61.8712 1.54557L64.2667 5.79573C64.4094 6.04891 64.6552 6.22748 64.9401 6.28496L69.7225 7.24991C70.4861 7.40399 70.7881 8.33343 70.2609 8.90693L66.959 12.4986C66.7623 12.7126 66.6685 13.0015 66.7018 13.2902L67.2619 18.1367C67.3514 18.9106 66.5608 19.485 65.8524 19.1608L61.4162 17.1305C61.1519 17.0095 60.8481 17.0095 60.5838 17.1305L56.1476 19.1608C55.4392 19.485 54.6486 18.9106 54.7381 18.1367L55.2982 13.2902C55.3315 13.0015 55.2377 12.7126 55.041 12.4986L51.7391 8.90693C51.2119 8.33343 51.5139 7.40399 52.2775 7.24991L57.0599 6.28496C57.3448 6.22748 57.5906 6.04891 57.7333 5.79573L60.1288 1.54557Z" fill="#EEC32A"/>
<path d="M85.1288 1.54557C85.5114 0.86693 86.4886 0.86693 86.8712 1.54557L89.2667 5.79573C89.4094 6.04891 89.6552 6.22748 89.9401 6.28496L94.7225 7.24991C95.4861 7.40399 95.7881 8.33343 95.2609 8.90693L91.959 12.4986C91.7623 12.7126 91.6685 13.0015 91.7018 13.2902L92.2619 18.1367C92.3514 18.9106 91.5608 19.485 90.8524 19.1608L86.4162 17.1305C86.1519 17.0095 85.8481 17.0095 85.5838 17.1305L81.1476 19.1608C80.4392 19.485 79.6486 18.9106 79.7381 18.1367L80.2982 13.2902C80.3315 13.0015 80.2377 12.7126 80.041 12.4986L76.7391 8.90693C76.2119 8.33343 76.5139 7.40399 77.2775 7.24991L82.0599 6.28496C82.3448 6.22748 82.5906 6.04891 82.7333 5.79573L85.1288 1.54557Z" fill="#EEC32A"/>
<path d="M110.129 1.54557C110.511 0.86693 111.489 0.86693 111.871 1.54557L114.267 5.79573C114.409 6.04891 114.655 6.22748 114.94 6.28496L119.722 7.24991C120.486 7.40399 120.788 8.33343 120.261 8.90693L116.959 12.4986C116.762 12.7126 116.668 13.0015 116.702 13.2902L117.262 18.1367C117.351 18.9106 116.561 19.485 115.852 19.1608L111.416 17.1305C111.152 17.0095 110.848 17.0095 110.584 17.1305L106.148 19.1608C105.439 19.485 104.649 18.9106 104.738 18.1367L105.298 13.2902C105.332 13.0015 105.238 12.7126 105.041 12.4986L101.739 8.90693C101.212 8.33343 101.514 7.40399 102.278 7.24991L107.06 6.28496C107.345 6.22748 107.591 6.04891 107.733 5.79573L110.129 1.54557Z" fill="#EEC32A"/>
</svg>
