<svg width="380" height="109" viewBox="0 0 380 109" fill="none" xmlns="http://www.w3.org/2000/svg">
<rect opacity="0.4" y="71" width="50" height="38" rx="10" fill="#3572C1"/>
<rect opacity="0.5" x="55" y="61" width="50" height="48" rx="10" fill="#3572C1"/>
<rect opacity="0.6" x="110" y="49" width="50" height="60" rx="10" fill="#3572C1"/>
<rect opacity="0.7" x="165" y="38" width="50" height="71" rx="10" fill="#3572C1"/>
<rect opacity="0.8" x="220" y="28" width="50" height="81" rx="10" fill="#3572C1"/>
<rect opacity="0.9" x="275" y="16" width="50" height="93" rx="10" fill="#3572C1"/>
<rect x="330" width="50" height="109" rx="10" fill="#3572C1"/>
<path d="M13.2404 101V100.169L16.3612 96.7528C16.7274 96.3527 17.029 96.005 17.266 95.7095C17.503 95.411 17.6784 95.1309 17.7923 94.8693C17.9092 94.6046 17.9677 94.3277 17.9677 94.0384C17.9677 93.706 17.8877 93.4182 17.7276 93.1751C17.5707 92.9319 17.3552 92.7442 17.0813 92.6119C16.8074 92.4795 16.4996 92.4134 16.158 92.4134C15.7949 92.4134 15.4779 92.4888 15.207 92.6396C14.9393 92.7873 14.7315 92.995 14.5838 93.2628C14.4392 93.5305 14.3668 93.8445 14.3668 94.2045H13.2773C13.2773 93.6506 13.4051 93.1643 13.6605 92.7457C13.916 92.3272 14.2637 92.0009 14.7038 91.767C15.147 91.5331 15.6441 91.4162 16.195 91.4162C16.7489 91.4162 17.2398 91.5331 17.6676 91.767C18.0954 92.0009 18.4309 92.3164 18.674 92.7134C18.9171 93.1104 19.0387 93.5521 19.0387 94.0384C19.0387 94.3861 18.9756 94.7262 18.8494 95.0586C18.7263 95.3879 18.5109 95.7557 18.2031 96.1619C17.8984 96.5651 17.4753 97.0575 16.9336 97.6392L14.81 99.9105V99.9844H19.2049V101H13.2404ZM24.4354 91.5455V101H23.2905V92.7457H23.2351L20.9268 94.2784V93.1151L23.2905 91.5455H24.4354ZM31.9741 99.2273V98.7287C31.9741 98.384 32.0449 98.0685 32.1864 97.7823C32.3311 97.493 32.5404 97.2622 32.8143 97.0898C33.0913 96.9144 33.4267 96.8267 33.8207 96.8267C34.2208 96.8267 34.5562 96.9144 34.8271 97.0898C35.0979 97.2622 35.3026 97.493 35.4411 97.7823C35.5795 98.0685 35.6488 98.384 35.6488 98.7287V99.2273C35.6488 99.572 35.578 99.889 35.4364 100.178C35.2979 100.464 35.0917 100.695 34.8178 100.871C34.547 101.043 34.2146 101.129 33.8207 101.129C33.4206 101.129 33.0836 101.043 32.8097 100.871C32.5357 100.695 32.328 100.464 32.1864 100.178C32.0449 99.889 31.9741 99.572 31.9741 99.2273ZM32.9158 98.7287V99.2273C32.9158 99.5135 32.9835 99.7705 33.119 99.9982C33.2544 100.223 33.4883 100.335 33.8207 100.335C34.1438 100.335 34.3716 100.223 34.5039 99.9982C34.6393 99.7705 34.707 99.5135 34.707 99.2273V98.7287C34.707 98.4425 34.6424 98.187 34.5131 97.9624C34.3839 97.7346 34.1531 97.6207 33.8207 97.6207C33.4975 97.6207 33.2652 97.7346 33.1236 97.9624C32.9851 98.187 32.9158 98.4425 32.9158 98.7287ZM27.2653 93.8168V93.3182C27.2653 92.9735 27.3361 92.658 27.4776 92.3718C27.6223 92.0825 27.8316 91.8517 28.1055 91.6793C28.3825 91.5039 28.7179 91.4162 29.1119 91.4162C29.512 91.4162 29.8474 91.5039 30.1183 91.6793C30.3891 91.8517 30.5938 92.0825 30.7322 92.3718C30.8707 92.658 30.94 92.9735 30.94 93.3182V93.8168C30.94 94.1615 30.8692 94.4785 30.7276 94.7678C30.5891 95.054 30.3829 95.2848 30.109 95.4602C29.8382 95.6326 29.5058 95.7188 29.1119 95.7188C28.7118 95.7188 28.3748 95.6326 28.1009 95.4602C27.8269 95.2848 27.6192 95.054 27.4776 94.7678C27.3361 94.4785 27.2653 94.1615 27.2653 93.8168ZM28.207 93.3182V93.8168C28.207 94.103 28.2747 94.36 28.4102 94.5877C28.5456 94.8124 28.7795 94.9247 29.1119 94.9247C29.435 94.9247 29.6628 94.8124 29.7951 94.5877C29.9305 94.36 29.9982 94.103 29.9982 93.8168V93.3182C29.9982 93.032 29.9336 92.7765 29.8043 92.5518C29.6751 92.3241 29.4442 92.2102 29.1119 92.2102C28.7887 92.2102 28.5563 92.3241 28.4148 92.5518C28.2763 92.7765 28.207 93.032 28.207 93.3182ZM27.6161 101L34.1161 91.5455H35.1687L28.6687 101H27.6161Z" fill="white"/>
<path d="M70.2988 101.129C69.6894 101.129 69.1462 101.025 68.6692 100.815C68.1952 100.606 67.8182 100.315 67.5381 99.9428C67.2611 99.5674 67.1103 99.1319 67.0857 98.6364H68.2491C68.2737 98.9411 68.3783 99.2042 68.563 99.4258C68.7476 99.6443 68.9892 99.8136 69.2878 99.9336C69.5863 100.054 69.9172 100.114 70.2803 100.114C70.6866 100.114 71.0467 100.043 71.3606 99.9013C71.6745 99.7597 71.9207 99.5627 72.0992 99.3104C72.2777 99.058 72.367 98.7656 72.367 98.4332C72.367 98.0855 72.2808 97.7792 72.1084 97.5146C71.9361 97.2468 71.6837 97.0375 71.3513 96.8867C71.019 96.7359 70.6127 96.6605 70.1326 96.6605H69.3755V95.6449H70.1326C70.5081 95.6449 70.8374 95.5772 71.1205 95.4418C71.4067 95.3063 71.6299 95.1155 71.7899 94.8693C71.953 94.6231 72.0346 94.3338 72.0346 94.0014C72.0346 93.6813 71.9638 93.4028 71.8222 93.1658C71.6806 92.9289 71.4806 92.7442 71.2221 92.6119C70.9666 92.4795 70.665 92.4134 70.3172 92.4134C69.991 92.4134 69.6833 92.4734 69.394 92.5934C69.1077 92.7103 68.8738 92.8812 68.6922 93.1058C68.5107 93.3274 68.4122 93.5952 68.3968 93.9091H67.2888C67.3073 93.4136 67.4566 92.9796 67.7366 92.6072C68.0167 92.2318 68.3829 91.9394 68.8354 91.7301C69.2909 91.5208 69.791 91.4162 70.3357 91.4162C70.9205 91.4162 71.4221 91.5347 71.8407 91.7717C72.2592 92.0056 72.5809 92.3149 72.8055 92.6996C73.0302 93.0843 73.1425 93.4998 73.1425 93.946C73.1425 94.4785 73.0025 94.9324 72.7224 95.3079C72.4454 95.6834 72.0684 95.9434 71.5914 96.0881V96.1619C72.1885 96.2604 72.6547 96.5143 72.9902 96.9237C73.3257 97.3299 73.4934 97.8331 73.4934 98.4332C73.4934 98.9472 73.3534 99.4089 73.0733 99.8182C72.7963 100.224 72.4177 100.545 71.9376 100.778C71.4575 101.012 70.9112 101.129 70.2988 101.129ZM78.3361 101.129C77.7944 101.129 77.3066 101.022 76.8726 100.806C76.4387 100.591 76.0909 100.295 75.8293 99.9197C75.5677 99.5443 75.4246 99.1165 75.4 98.6364H76.5079C76.551 99.0642 76.7449 99.4181 77.0896 99.6982C77.4374 99.9751 77.8529 100.114 78.3361 100.114C78.7239 100.114 79.0686 100.023 79.3702 99.8413C79.6748 99.6597 79.9134 99.4104 80.0857 99.0934C80.2611 98.7733 80.3489 98.4117 80.3489 98.0085C80.3489 97.5961 80.2581 97.2283 80.0765 96.9052C79.898 96.579 79.6518 96.322 79.3378 96.1342C79.0239 95.9465 78.6654 95.8511 78.2622 95.848C77.9729 95.8449 77.6759 95.8896 77.3712 95.9819C77.0665 96.0711 76.8157 96.1866 76.6187 96.3281L75.5477 96.1989L76.1202 91.5455H81.0321V92.5611H77.0804L76.748 95.3494H76.8034C76.9973 95.1955 77.2404 95.0678 77.5328 94.9663C77.8252 94.8647 78.1299 94.8139 78.4469 94.8139C79.0255 94.8139 79.541 94.9524 79.9934 95.2294C80.4489 95.5033 80.8059 95.8788 81.0644 96.3558C81.326 96.8329 81.4568 97.3776 81.4568 97.9901C81.4568 98.5933 81.3214 99.1319 81.0506 99.6058C80.7828 100.077 80.4135 100.449 79.9426 100.723C79.4717 100.994 78.9362 101.129 78.3361 101.129ZM88.1103 99.2273V98.7287C88.1103 98.384 88.1811 98.0685 88.3227 97.7823C88.4673 97.493 88.6766 97.2622 88.9505 97.0898C89.2275 96.9144 89.563 96.8267 89.9569 96.8267C90.357 96.8267 90.6925 96.9144 90.9633 97.0898C91.2341 97.2622 91.4388 97.493 91.5773 97.7823C91.7158 98.0685 91.785 98.384 91.785 98.7287V99.2273C91.785 99.572 91.7142 99.889 91.5727 100.178C91.4342 100.464 91.228 100.695 90.9541 100.871C90.6832 101.043 90.3508 101.129 89.9569 101.129C89.5568 101.129 89.2198 101.043 88.9459 100.871C88.672 100.695 88.4642 100.464 88.3227 100.178C88.1811 99.889 88.1103 99.572 88.1103 99.2273ZM89.0521 98.7287V99.2273C89.0521 99.5135 89.1198 99.7705 89.2552 99.9982C89.3906 100.223 89.6245 100.335 89.9569 100.335C90.2801 100.335 90.5078 100.223 90.6401 99.9982C90.7756 99.7705 90.8433 99.5135 90.8433 99.2273V98.7287C90.8433 98.4425 90.7786 98.187 90.6494 97.9624C90.5201 97.7346 90.2893 97.6207 89.9569 97.6207C89.6337 97.6207 89.4014 97.7346 89.2598 97.9624C89.1213 98.187 89.0521 98.4425 89.0521 98.7287ZM83.4015 93.8168V93.3182C83.4015 92.9735 83.4723 92.658 83.6139 92.3718C83.7585 92.0825 83.9678 91.8517 84.2417 91.6793C84.5187 91.5039 84.8542 91.4162 85.2481 91.4162C85.6482 91.4162 85.9837 91.5039 86.2545 91.6793C86.5253 91.8517 86.73 92.0825 86.8685 92.3718C87.007 92.658 87.0762 92.9735 87.0762 93.3182V93.8168C87.0762 94.1615 87.0054 94.4785 86.8639 94.7678C86.7254 95.054 86.5192 95.2848 86.2453 95.4602C85.9744 95.6326 85.642 95.7188 85.2481 95.7188C84.848 95.7188 84.511 95.6326 84.2371 95.4602C83.9632 95.2848 83.7554 95.054 83.6139 94.7678C83.4723 94.4785 83.4015 94.1615 83.4015 93.8168ZM84.3433 93.3182V93.8168C84.3433 94.103 84.411 94.36 84.5464 94.5877C84.6818 94.8124 84.9157 94.9247 85.2481 94.9247C85.5712 94.9247 85.799 94.8124 85.9313 94.5877C86.0667 94.36 86.1345 94.103 86.1345 93.8168V93.3182C86.1345 93.032 86.0698 92.7765 85.9406 92.5518C85.8113 92.3241 85.5805 92.2102 85.2481 92.2102C84.9249 92.2102 84.6926 92.3241 84.551 92.5518C84.4125 92.7765 84.3433 93.032 84.3433 93.3182ZM83.7524 101L90.2524 91.5455H91.3049L84.8049 101H83.7524Z" fill="white"/>
<path d="M122.243 99.0611V98.1193L126.398 91.5455H127.081V93.0043H126.619L123.48 97.9716V98.0455H129.075V99.0611H122.243ZM126.693 101V98.7749V98.3363V91.5455H127.783V101H126.693ZM133.889 101.129C133.194 101.129 132.601 100.94 132.112 100.561C131.622 100.18 131.249 99.6274 130.99 98.9041C130.731 98.1778 130.602 97.3007 130.602 96.2727C130.602 95.2509 130.731 94.3784 130.99 93.6552C131.252 92.9289 131.627 92.3749 132.116 91.9933C132.609 91.6085 133.2 91.4162 133.889 91.4162C134.579 91.4162 135.168 91.6085 135.657 91.9933C136.15 92.3749 136.525 92.9289 136.784 93.6552C137.045 94.3784 137.176 95.2509 137.176 96.2727C137.176 97.3007 137.047 98.1778 136.788 98.9041C136.53 99.6274 136.156 100.18 135.667 100.561C135.177 100.94 134.585 101.129 133.889 101.129ZM133.889 100.114C134.579 100.114 135.114 99.7812 135.496 99.1165C135.877 98.4517 136.068 97.5038 136.068 96.2727C136.068 95.4541 135.98 94.757 135.805 94.1815C135.633 93.6059 135.383 93.1674 135.057 92.8658C134.734 92.5642 134.345 92.4134 133.889 92.4134C133.206 92.4134 132.672 92.7504 132.287 93.4244C131.903 94.0953 131.71 95.0447 131.71 96.2727C131.71 97.0914 131.796 97.7869 131.969 98.3594C132.141 98.9318 132.389 99.3673 132.712 99.6658C133.038 99.9644 133.431 100.114 133.889 100.114ZM143.75 99.2273V98.7287C143.75 98.384 143.821 98.0685 143.962 97.7823C144.107 97.493 144.316 97.2622 144.59 97.0898C144.867 96.9144 145.203 96.8267 145.597 96.8267C145.997 96.8267 146.332 96.9144 146.603 97.0898C146.874 97.2622 147.078 97.493 147.217 97.7823C147.355 98.0685 147.425 98.384 147.425 98.7287V99.2273C147.425 99.572 147.354 99.889 147.212 100.178C147.074 100.464 146.868 100.695 146.594 100.871C146.323 101.043 145.99 101.129 145.597 101.129C145.196 101.129 144.859 101.043 144.586 100.871C144.312 100.695 144.104 100.464 143.962 100.178C143.821 99.889 143.75 99.572 143.75 99.2273ZM144.692 98.7287V99.2273C144.692 99.5135 144.759 99.7705 144.895 99.9982C145.03 100.223 145.264 100.335 145.597 100.335C145.92 100.335 146.147 100.223 146.28 99.9982C146.415 99.7705 146.483 99.5135 146.483 99.2273V98.7287C146.483 98.4425 146.418 98.187 146.289 97.9624C146.16 97.7346 145.929 97.6207 145.597 97.6207C145.273 97.6207 145.041 97.7346 144.899 97.9624C144.761 98.187 144.692 98.4425 144.692 98.7287ZM139.041 93.8168V93.3182C139.041 92.9735 139.112 92.658 139.254 92.3718C139.398 92.0825 139.607 91.8517 139.881 91.6793C140.158 91.5039 140.494 91.4162 140.888 91.4162C141.288 91.4162 141.623 91.5039 141.894 91.6793C142.165 91.8517 142.37 92.0825 142.508 92.3718C142.647 92.658 142.716 92.9735 142.716 93.3182V93.8168C142.716 94.1615 142.645 94.4785 142.504 94.7678C142.365 95.054 142.159 95.2848 141.885 95.4602C141.614 95.6326 141.282 95.7188 140.888 95.7188C140.488 95.7188 140.151 95.6326 139.877 95.4602C139.603 95.2848 139.395 95.054 139.254 94.7678C139.112 94.4785 139.041 94.1615 139.041 93.8168ZM139.983 93.3182V93.8168C139.983 94.103 140.051 94.36 140.186 94.5877C140.321 94.8124 140.555 94.9247 140.888 94.9247C141.211 94.9247 141.439 94.8124 141.571 94.5877C141.706 94.36 141.774 94.103 141.774 93.8168V93.3182C141.774 93.032 141.709 92.7765 141.58 92.5518C141.451 92.3241 141.22 92.2102 140.888 92.2102C140.565 92.2102 140.332 92.3241 140.191 92.5518C140.052 92.7765 139.983 93.032 139.983 93.3182ZM139.392 101L145.892 91.5455H146.945L140.445 101H139.392Z" fill="white"/>
<path d="M176.8 99.0611V98.1193L180.955 91.5455H181.638V93.0043H181.176L178.037 97.9716V98.0455H183.632V99.0611H176.8ZM181.25 101V98.7749V98.3363V91.5455H182.34V101H181.25ZM188.391 101.129C187.757 101.129 187.197 101.017 186.71 100.792C186.227 100.565 185.85 100.252 185.579 99.8551C185.309 99.455 185.175 98.9995 185.178 98.4886C185.175 98.0885 185.253 97.7192 185.413 97.3807C185.573 97.0391 185.792 96.7544 186.069 96.5266C186.349 96.2958 186.661 96.1496 187.006 96.0881V96.0327C186.554 95.9157 186.193 95.6618 185.926 95.271C185.658 94.877 185.526 94.4292 185.529 93.9276C185.526 93.4474 185.647 93.0181 185.893 92.6396C186.14 92.261 186.478 91.9625 186.909 91.744C187.343 91.5254 187.837 91.4162 188.391 91.4162C188.939 91.4162 189.428 91.5254 189.859 91.744C190.29 91.9625 190.628 92.261 190.875 92.6396C191.124 93.0181 191.25 93.4474 191.253 93.9276C191.25 94.4292 191.113 94.877 190.842 95.271C190.574 95.6618 190.219 95.9157 189.776 96.0327V96.0881C190.117 96.1496 190.425 96.2958 190.699 96.5266C190.973 96.7544 191.192 97.0391 191.355 97.3807C191.518 97.7192 191.601 98.0885 191.604 98.4886C191.601 98.9995 191.462 99.455 191.188 99.8551C190.918 100.252 190.541 100.565 190.057 100.792C189.577 101.017 189.022 101.129 188.391 101.129ZM188.391 100.114C188.819 100.114 189.188 100.044 189.499 99.9059C189.81 99.7674 190.05 99.572 190.219 99.3196C190.388 99.0672 190.474 98.7718 190.478 98.4332C190.474 98.0762 190.382 97.7608 190.201 97.4869C190.019 97.2129 189.771 96.9975 189.457 96.8406C189.146 96.6836 188.791 96.6051 188.391 96.6051C187.988 96.6051 187.628 96.6836 187.311 96.8406C186.997 96.9975 186.749 97.2129 186.567 97.4869C186.389 97.7608 186.301 98.0762 186.304 98.4332C186.301 98.7718 186.383 99.0672 186.549 99.3196C186.718 99.572 186.96 99.7674 187.274 99.9059C187.588 100.044 187.96 100.114 188.391 100.114ZM188.391 95.6264C188.729 95.6264 189.03 95.5587 189.291 95.4233C189.556 95.2879 189.764 95.0986 189.914 94.8555C190.065 94.6123 190.142 94.3277 190.145 94.0014C190.142 93.6813 190.067 93.4028 189.919 93.1658C189.771 92.9258 189.567 92.7411 189.305 92.6119C189.043 92.4795 188.739 92.4134 188.391 92.4134C188.037 92.4134 187.728 92.4795 187.463 92.6119C187.198 92.7411 186.994 92.9258 186.849 93.1658C186.704 93.4028 186.634 93.6813 186.637 94.0014C186.634 94.3277 186.706 94.6123 186.854 94.8555C187.004 95.0986 187.212 95.2879 187.477 95.4233C187.742 95.5587 188.046 95.6264 188.391 95.6264ZM198.193 99.2273V98.7287C198.193 98.384 198.264 98.0685 198.405 97.7823C198.55 97.493 198.759 97.2622 199.033 97.0898C199.31 96.9144 199.645 96.8267 200.039 96.8267C200.44 96.8267 200.775 96.9144 201.046 97.0898C201.317 97.2622 201.521 97.493 201.66 97.7823C201.798 98.0685 201.868 98.384 201.868 98.7287V99.2273C201.868 99.572 201.797 99.889 201.655 100.178C201.517 100.464 201.31 100.695 201.037 100.871C200.766 101.043 200.433 101.129 200.039 101.129C199.639 101.129 199.302 101.043 199.028 100.871C198.754 100.695 198.547 100.464 198.405 100.178C198.264 99.889 198.193 99.572 198.193 99.2273ZM199.135 98.7287V99.2273C199.135 99.5135 199.202 99.7705 199.338 99.9982C199.473 100.223 199.707 100.335 200.039 100.335C200.363 100.335 200.59 100.223 200.723 99.9982C200.858 99.7705 200.926 99.5135 200.926 99.2273V98.7287C200.926 98.4425 200.861 98.187 200.732 97.9624C200.603 97.7346 200.372 97.6207 200.039 97.6207C199.716 97.6207 199.484 97.7346 199.342 97.9624C199.204 98.187 199.135 98.4425 199.135 98.7287ZM193.484 93.8168V93.3182C193.484 92.9735 193.555 92.658 193.696 92.3718C193.841 92.0825 194.05 91.8517 194.324 91.6793C194.601 91.5039 194.937 91.4162 195.331 91.4162C195.731 91.4162 196.066 91.5039 196.337 91.6793C196.608 91.8517 196.813 92.0825 196.951 92.3718C197.089 92.658 197.159 92.9735 197.159 93.3182V93.8168C197.159 94.1615 197.088 94.4785 196.946 94.7678C196.808 95.054 196.602 95.2848 196.328 95.4602C196.057 95.6326 195.725 95.7188 195.331 95.7188C194.931 95.7188 194.594 95.6326 194.32 95.4602C194.046 95.2848 193.838 95.054 193.696 94.7678C193.555 94.4785 193.484 94.1615 193.484 93.8168ZM194.426 93.3182V93.8168C194.426 94.103 194.493 94.36 194.629 94.5877C194.764 94.8124 194.998 94.9247 195.331 94.9247C195.654 94.9247 195.882 94.8124 196.014 94.5877C196.149 94.36 196.217 94.103 196.217 93.8168V93.3182C196.217 93.032 196.152 92.7765 196.023 92.5518C195.894 92.3241 195.663 92.2102 195.331 92.2102C195.007 92.2102 194.775 92.3241 194.634 92.5518C194.495 92.7765 194.426 93.032 194.426 93.3182ZM193.835 101L200.335 91.5455H201.387L194.887 101H193.835Z" fill="white"/>
<path d="M235.262 101.129C234.72 101.129 234.232 101.022 233.798 100.806C233.364 100.591 233.017 100.295 232.755 99.9197C232.494 99.5443 232.35 99.1165 232.326 98.6364H233.434C233.477 99.0642 233.671 99.4181 234.015 99.6982C234.363 99.9751 234.779 100.114 235.262 100.114C235.65 100.114 235.994 100.023 236.296 99.8413C236.601 99.6597 236.839 99.4104 237.011 99.0934C237.187 98.7733 237.275 98.4117 237.275 98.0085C237.275 97.5961 237.184 97.2283 237.002 96.9052C236.824 96.579 236.578 96.322 236.264 96.1342C235.95 95.9465 235.591 95.8511 235.188 95.848C234.899 95.8449 234.602 95.8896 234.297 95.9819C233.992 96.0711 233.741 96.1866 233.545 96.3281L232.473 96.1989L233.046 91.5455H237.958V92.5611H234.006L233.674 95.3494H233.729C233.923 95.1955 234.166 95.0678 234.459 94.9663C234.751 94.8647 235.056 94.8139 235.373 94.8139C235.951 94.8139 236.467 94.9524 236.919 95.2294C237.375 95.5033 237.732 95.8788 237.99 96.3558C238.252 96.8329 238.383 97.3776 238.383 97.9901C238.383 98.5933 238.247 99.1319 237.976 99.6058C237.709 100.077 237.339 100.449 236.868 100.723C236.398 100.994 235.862 101.129 235.262 101.129ZM240.216 101V100.169L243.337 96.7528C243.703 96.3527 244.005 96.005 244.242 95.7095C244.479 95.411 244.654 95.1309 244.768 94.8693C244.885 94.6046 244.944 94.3277 244.944 94.0384C244.944 93.706 244.864 93.4182 244.704 93.1751C244.547 92.9319 244.331 92.7442 244.057 92.6119C243.783 92.4795 243.476 92.4134 243.134 92.4134C242.771 92.4134 242.454 92.4888 242.183 92.6396C241.915 92.7873 241.708 92.995 241.56 93.2628C241.415 93.5305 241.343 93.8445 241.343 94.2045H240.253C240.253 93.6506 240.381 93.1643 240.637 92.7457C240.892 92.3272 241.24 92.0009 241.68 91.767C242.123 91.5331 242.62 91.4162 243.171 91.4162C243.725 91.4162 244.216 91.5331 244.644 91.767C245.071 92.0009 245.407 92.3164 245.65 92.7134C245.893 93.1104 246.015 93.5521 246.015 94.0384C246.015 94.3861 245.952 94.7262 245.826 95.0586C245.702 95.3879 245.487 95.7557 245.179 96.1619C244.875 96.5651 244.451 97.0575 243.91 97.6392L241.786 99.9105V99.9844H246.181V101H240.216ZM252.907 99.2273V98.7287C252.907 98.384 252.978 98.0685 253.12 97.7823C253.264 97.493 253.473 97.2622 253.747 97.0898C254.024 96.9144 254.36 96.8267 254.754 96.8267C255.154 96.8267 255.489 96.9144 255.76 97.0898C256.031 97.2622 256.236 97.493 256.374 97.7823C256.513 98.0685 256.582 98.384 256.582 98.7287V99.2273C256.582 99.572 256.511 99.889 256.37 100.178C256.231 100.464 256.025 100.695 255.751 100.871C255.48 101.043 255.148 101.129 254.754 101.129C254.354 101.129 254.017 101.043 253.743 100.871C253.469 100.695 253.261 100.464 253.12 100.178C252.978 99.889 252.907 99.572 252.907 99.2273ZM253.849 98.7287V99.2273C253.849 99.5135 253.917 99.7705 254.052 99.9982C254.187 100.223 254.421 100.335 254.754 100.335C255.077 100.335 255.305 100.223 255.437 99.9982C255.572 99.7705 255.64 99.5135 255.64 99.2273V98.7287C255.64 98.4425 255.576 98.187 255.446 97.9624C255.317 97.7346 255.086 97.6207 254.754 97.6207C254.431 97.6207 254.198 97.7346 254.057 97.9624C253.918 98.187 253.849 98.4425 253.849 98.7287ZM248.198 93.8168V93.3182C248.198 92.9735 248.269 92.658 248.411 92.3718C248.555 92.0825 248.765 91.8517 249.039 91.6793C249.316 91.5039 249.651 91.4162 250.045 91.4162C250.445 91.4162 250.781 91.5039 251.051 91.6793C251.322 91.8517 251.527 92.0825 251.665 92.3718C251.804 92.658 251.873 92.9735 251.873 93.3182V93.8168C251.873 94.1615 251.802 94.4785 251.661 94.7678C251.522 95.054 251.316 95.2848 251.042 95.4602C250.771 95.6326 250.439 95.7188 250.045 95.7188C249.645 95.7188 249.308 95.6326 249.034 95.4602C248.76 95.2848 248.552 95.054 248.411 94.7678C248.269 94.4785 248.198 94.1615 248.198 93.8168ZM249.14 93.3182V93.8168C249.14 94.103 249.208 94.36 249.343 94.5877C249.479 94.8124 249.713 94.9247 250.045 94.9247C250.368 94.9247 250.596 94.8124 250.728 94.5877C250.864 94.36 250.931 94.103 250.931 93.8168V93.3182C250.931 93.032 250.867 92.7765 250.737 92.5518C250.608 92.3241 250.377 92.2102 250.045 92.2102C249.722 92.2102 249.489 92.3241 249.348 92.5518C249.209 92.7765 249.14 93.032 249.14 93.3182ZM248.549 101L255.049 91.5455H256.102L249.602 101H248.549Z" fill="white"/>
<path d="M290.984 101.129C290.442 101.129 289.955 101.022 289.521 100.806C289.087 100.591 288.739 100.295 288.477 99.9197C288.216 99.5443 288.073 99.1165 288.048 98.6364H289.156C289.199 99.0642 289.393 99.4181 289.738 99.6982C290.085 99.9751 290.501 100.114 290.984 100.114C291.372 100.114 291.717 100.023 292.018 99.8413C292.323 99.6597 292.561 99.4104 292.734 99.0934C292.909 98.7733 292.997 98.4117 292.997 98.0085C292.997 97.5961 292.906 97.2283 292.724 96.9052C292.546 96.579 292.3 96.322 291.986 96.1342C291.672 95.9465 291.313 95.8511 290.91 95.848C290.621 95.8449 290.324 95.8896 290.019 95.9819C289.714 96.0711 289.464 96.1866 289.267 96.3281L288.196 96.1989L288.768 91.5455H293.68V92.5611H289.728L289.396 95.3494H289.451C289.645 95.1955 289.888 95.0678 290.181 94.9663C290.473 94.8647 290.778 94.8139 291.095 94.8139C291.673 94.8139 292.189 94.9524 292.641 95.2294C293.097 95.5033 293.454 95.8788 293.712 96.3558C293.974 96.8329 294.105 97.3776 294.105 97.9901C294.105 98.5933 293.969 99.1319 293.699 99.6058C293.431 100.077 293.061 100.449 292.591 100.723C292.12 100.994 291.584 101.129 290.984 101.129ZM296.234 101L300.463 92.6349V92.5611H295.588V91.5455H301.645V92.6165L297.434 101H296.234ZM308.185 99.2273V98.7287C308.185 98.384 308.256 98.0685 308.397 97.7823C308.542 97.493 308.751 97.2622 309.025 97.0898C309.302 96.9144 309.638 96.8267 310.032 96.8267C310.432 96.8267 310.767 96.9144 311.038 97.0898C311.309 97.2622 311.513 97.493 311.652 97.7823C311.79 98.0685 311.86 98.384 311.86 98.7287V99.2273C311.86 99.572 311.789 99.889 311.647 100.178C311.509 100.464 311.303 100.695 311.029 100.871C310.758 101.043 310.426 101.129 310.032 101.129C309.632 101.129 309.295 101.043 309.021 100.871C308.747 100.695 308.539 100.464 308.397 100.178C308.256 99.889 308.185 99.572 308.185 99.2273ZM309.127 98.7287V99.2273C309.127 99.5135 309.194 99.7705 309.33 99.9982C309.465 100.223 309.699 100.335 310.032 100.335C310.355 100.335 310.583 100.223 310.715 99.9982C310.85 99.7705 310.918 99.5135 310.918 99.2273V98.7287C310.918 98.4425 310.853 98.187 310.724 97.9624C310.595 97.7346 310.364 97.6207 310.032 97.6207C309.708 97.6207 309.476 97.7346 309.335 97.9624C309.196 98.187 309.127 98.4425 309.127 98.7287ZM303.476 93.8168V93.3182C303.476 92.9735 303.547 92.658 303.689 92.3718C303.833 92.0825 304.042 91.8517 304.316 91.6793C304.593 91.5039 304.929 91.4162 305.323 91.4162C305.723 91.4162 306.058 91.5039 306.329 91.6793C306.6 91.8517 306.805 92.0825 306.943 92.3718C307.082 92.658 307.151 92.9735 307.151 93.3182V93.8168C307.151 94.1615 307.08 94.4785 306.939 94.7678C306.8 95.054 306.594 95.2848 306.32 95.4602C306.049 95.6326 305.717 95.7188 305.323 95.7188C304.923 95.7188 304.586 95.6326 304.312 95.4602C304.038 95.2848 303.83 95.054 303.689 94.7678C303.547 94.4785 303.476 94.1615 303.476 93.8168ZM304.418 93.3182V93.8168C304.418 94.103 304.486 94.36 304.621 94.5877C304.757 94.8124 304.99 94.9247 305.323 94.9247C305.646 94.9247 305.874 94.8124 306.006 94.5877C306.141 94.36 306.209 94.103 306.209 93.8168V93.3182C306.209 93.032 306.145 92.7765 306.015 92.5518C305.886 92.3241 305.655 92.2102 305.323 92.2102C305 92.2102 304.767 92.3241 304.626 92.5518C304.487 92.7765 304.418 93.032 304.418 93.3182ZM303.827 101L310.327 91.5455H311.38L304.88 101H303.827Z" fill="white"/>
<path d="M345.142 101.129C344.754 101.123 344.366 101.049 343.978 100.908C343.591 100.766 343.237 100.528 342.917 100.192C342.597 99.8536 342.34 99.3965 342.146 98.821C341.952 98.2424 341.855 97.5161 341.855 96.642C341.855 95.8049 341.933 95.0632 342.09 94.4169C342.247 93.7675 342.475 93.2212 342.774 92.7781C343.072 92.3318 343.432 91.9933 343.854 91.7624C344.279 91.5316 344.757 91.4162 345.29 91.4162C345.819 91.4162 346.29 91.5224 346.702 91.7347C347.118 91.944 347.456 92.2364 347.718 92.6119C347.979 92.9873 348.149 93.4197 348.226 93.9091H347.099C346.995 93.4844 346.791 93.132 346.49 92.8519C346.188 92.5719 345.788 92.4318 345.29 92.4318C344.557 92.4318 343.98 92.7504 343.558 93.3874C343.14 94.0245 342.929 94.9186 342.926 96.0696H343C343.172 95.808 343.377 95.5849 343.614 95.4002C343.854 95.2125 344.119 95.0678 344.408 94.9663C344.697 94.8647 345.003 94.8139 345.326 94.8139C345.868 94.8139 346.364 94.9493 346.813 95.2202C347.262 95.4879 347.622 95.8588 347.893 96.3327C348.164 96.8036 348.299 97.3438 348.299 97.9531C348.299 98.5379 348.169 99.0734 347.907 99.5597C347.645 100.043 347.278 100.428 346.804 100.714C346.333 100.997 345.779 101.135 345.142 101.129ZM345.142 100.114C345.53 100.114 345.877 100.017 346.185 99.8228C346.496 99.6289 346.741 99.3688 346.919 99.0426C347.101 98.7164 347.192 98.3532 347.192 97.9531C347.192 97.5623 347.104 97.2068 346.928 96.8867C346.756 96.5636 346.518 96.3066 346.213 96.1158C345.911 95.925 345.567 95.8295 345.179 95.8295C344.886 95.8295 344.614 95.888 344.362 96.005C344.109 96.1188 343.888 96.2758 343.697 96.4759C343.509 96.6759 343.361 96.9052 343.254 97.1637C343.146 97.4192 343.092 97.6884 343.092 97.9716C343.092 98.3471 343.18 98.6979 343.355 99.0241C343.534 99.3504 343.777 99.6135 344.085 99.8136C344.395 100.014 344.748 100.114 345.142 100.114ZM353.31 101.129C352.7 101.129 352.157 101.025 351.68 100.815C351.206 100.606 350.829 100.315 350.549 99.9428C350.272 99.5674 350.121 99.1319 350.096 98.6364H351.26C351.284 98.9411 351.389 99.2042 351.574 99.4258C351.758 99.6443 352 99.8136 352.299 99.9336C352.597 100.054 352.928 100.114 353.291 100.114C353.697 100.114 354.057 100.043 354.371 99.9013C354.685 99.7597 354.931 99.5627 355.11 99.3104C355.288 99.058 355.378 98.7656 355.378 98.4332C355.378 98.0855 355.292 97.7792 355.119 97.5146C354.947 97.2468 354.694 97.0375 354.362 96.8867C354.03 96.7359 353.623 96.6605 353.143 96.6605H352.386V95.6449H353.143C353.519 95.6449 353.848 95.5772 354.131 95.4418C354.417 95.3063 354.641 95.1155 354.801 94.8693C354.964 94.6231 355.045 94.3338 355.045 94.0014C355.045 93.6813 354.975 93.4028 354.833 93.1658C354.691 92.9289 354.491 92.7442 354.233 92.6119C353.977 92.4795 353.676 92.4134 353.328 92.4134C353.002 92.4134 352.694 92.4734 352.405 92.5934C352.118 92.7103 351.885 92.8812 351.703 93.1058C351.521 93.3274 351.423 93.5952 351.408 93.9091H350.3C350.318 93.4136 350.467 92.9796 350.747 92.6072C351.027 92.2318 351.394 91.9394 351.846 91.7301C352.302 91.5208 352.802 91.4162 353.346 91.4162C353.931 91.4162 354.433 91.5347 354.851 91.7717C355.27 92.0056 355.592 92.3149 355.816 92.6996C356.041 93.0843 356.153 93.4998 356.153 93.946C356.153 94.4785 356.013 94.9324 355.733 95.3079C355.456 95.6834 355.079 95.9434 354.602 96.0881V96.1619C355.199 96.2604 355.665 96.5143 356.001 96.9237C356.336 97.3299 356.504 97.8331 356.504 98.4332C356.504 98.9472 356.364 99.4089 356.084 99.8182C355.807 100.224 355.428 100.545 354.948 100.778C354.468 101.012 353.922 101.129 353.31 101.129ZM363.212 99.2273V98.7287C363.212 98.384 363.283 98.0685 363.424 97.7823C363.569 97.493 363.778 97.2622 364.052 97.0898C364.329 96.9144 364.665 96.8267 365.058 96.8267C365.459 96.8267 365.794 96.9144 366.065 97.0898C366.336 97.2622 366.54 97.493 366.679 97.7823C366.817 98.0685 366.887 98.384 366.887 98.7287V99.2273C366.887 99.572 366.816 99.889 366.674 100.178C366.536 100.464 366.33 100.695 366.056 100.871C365.785 101.043 365.452 101.129 365.058 101.129C364.658 101.129 364.321 101.043 364.047 100.871C363.774 100.695 363.566 100.464 363.424 100.178C363.283 99.889 363.212 99.572 363.212 99.2273ZM364.154 98.7287V99.2273C364.154 99.5135 364.221 99.7705 364.357 99.9982C364.492 100.223 364.726 100.335 365.058 100.335C365.382 100.335 365.609 100.223 365.742 99.9982C365.877 99.7705 365.945 99.5135 365.945 99.2273V98.7287C365.945 98.4425 365.88 98.187 365.751 97.9624C365.622 97.7346 365.391 97.6207 365.058 97.6207C364.735 97.6207 364.503 97.7346 364.361 97.9624C364.223 98.187 364.154 98.4425 364.154 98.7287ZM358.503 93.8168V93.3182C358.503 92.9735 358.574 92.658 358.715 92.3718C358.86 92.0825 359.069 91.8517 359.343 91.6793C359.62 91.5039 359.956 91.4162 360.35 91.4162C360.75 91.4162 361.085 91.5039 361.356 91.6793C361.627 91.8517 361.832 92.0825 361.97 92.3718C362.109 92.658 362.178 92.9735 362.178 93.3182V93.8168C362.178 94.1615 362.107 94.4785 361.965 94.7678C361.827 95.054 361.621 95.2848 361.347 95.4602C361.076 95.6326 360.744 95.7188 360.35 95.7188C359.95 95.7188 359.613 95.6326 359.339 95.4602C359.065 95.2848 358.857 95.054 358.715 94.7678C358.574 94.4785 358.503 94.1615 358.503 93.8168ZM359.445 93.3182V93.8168C359.445 94.103 359.513 94.36 359.648 94.5877C359.783 94.8124 360.017 94.9247 360.35 94.9247C360.673 94.9247 360.901 94.8124 361.033 94.5877C361.168 94.36 361.236 94.103 361.236 93.8168V93.3182C361.236 93.032 361.171 92.7765 361.042 92.5518C360.913 92.3241 360.682 92.2102 360.35 92.2102C360.027 92.2102 359.794 92.3241 359.653 92.5518C359.514 92.7765 359.445 93.032 359.445 93.3182ZM358.854 101L365.354 91.5455H366.406L359.906 101H358.854Z" fill="white"/>
</svg>
