<svg width="56" height="56" viewBox="0 0 56 56" fill="none" xmlns="http://www.w3.org/2000/svg">
<rect width="56" height="56" rx="28" fill="white" fill-opacity="0.2"/>
<path d="M37.9998 35.5H30.4998M37.9998 35.5C39.3805 35.5 40.4998 36.6193 40.4998 38C40.4998 39.3807 39.3805 40.5 37.9998 40.5H30.4998C29.1191 40.5 27.9998 39.3807 27.9998 38C27.9998 36.6193 29.1191 35.5 30.4998 35.5M37.9998 35.5C39.3805 35.5 40.4998 34.3807 40.4998 33C40.4998 31.6193 39.3805 30.5 37.9998 30.5H37.1665M30.4998 35.5C29.1191 35.5 27.9998 34.3807 27.9998 33C27.9998 31.6193 29.1191 30.5 30.4998 30.5H37.1665M30.0941 40.5H25.9055C20.7863 40.5 17.1716 35.4848 18.7904 30.6283L20.0404 26.8783C21.0613 23.8157 23.9273 21.75 27.1555 21.75H28.8441C32.0724 21.75 34.9384 23.8157 35.9593 26.8783L37.1665 30.5" stroke="white" stroke-width="1.5" stroke-linejoin="round"/>
<path d="M30.6074 21.75L25.3926 21.75L23.6413 19.7412C21.9245 17.772 23.9273 14.8287 26.4338 15.6373L27.5936 16.0114C27.8576 16.0966 28.1424 16.0966 28.4064 16.0114L29.5662 15.6373C32.0727 14.8287 34.0755 17.772 32.3587 19.7412L30.6074 21.75Z" stroke="white" stroke-width="1.5" stroke-linejoin="round"/>
</svg>
