<svg width="56" height="56" viewBox="0 0 56 56" fill="none" xmlns="http://www.w3.org/2000/svg">
<rect width="56" height="56" rx="28" fill="#3572C1" fill-opacity="0.2"/>
<path d="M38 19.25V26.125" stroke="#3572C1" stroke-width="1.5" stroke-linecap="round"/>
<path d="M33.75 21.75V21H32.25V21.75H33.75ZM23.75 21.75V21H22.25V21.75H23.75ZM28 15.5L28.2633 14.7978C28.0936 14.7341 27.9064 14.7341 27.7367 14.7978L28 15.5ZM18 19.25L17.7367 18.5478C17.4439 18.6575 17.25 18.9374 17.25 19.25C17.25 19.5626 17.4439 19.8425 17.7367 19.9522L18 19.25ZM28 23L27.7367 23.7022C27.9064 23.7659 28.0936 23.7659 28.2633 23.7022L28 23ZM38 19.25L38.2633 19.9522C38.5561 19.8425 38.75 19.5626 38.75 19.25C38.75 18.9374 38.5561 18.6575 38.2633 18.5478L38 19.25ZM28.8888 34.2573L28.3555 33.73L28.8888 34.2573ZM30.8744 32.2495L31.4077 32.7769L31.4077 32.7769L30.8744 32.2495ZM32.0475 31.9302L32.2591 31.2106H32.2591L32.0475 31.9302ZM25.1256 32.2495L25.6588 31.7221L25.1256 32.2495ZM27.1112 34.2573L27.6445 33.73L27.1112 34.2573ZM23.9525 31.9302L23.7409 31.2106L23.9525 31.9302ZM37.25 40.5C37.25 40.9142 37.5858 41.25 38 41.25C38.4142 41.25 38.75 40.9142 38.75 40.5H37.25ZM17.25 40.5C17.25 40.9142 17.5858 41.25 18 41.25C18.4142 41.25 18.75 40.9142 18.75 40.5H17.25ZM32.25 21.75V24.25H33.75V21.75H32.25ZM23.75 24.25V21.75H22.25V24.25H23.75ZM28 28.5C25.6528 28.5 23.75 26.5972 23.75 24.25H22.25C22.25 27.4256 24.8244 30 28 30V28.5ZM32.25 24.25C32.25 26.5972 30.3472 28.5 28 28.5V30C31.1756 30 33.75 27.4256 33.75 24.25H32.25ZM27.7367 14.7978L17.7367 18.5478L18.2633 19.9522L28.2633 16.2022L27.7367 14.7978ZM28.2633 23.7022L38.2633 19.9522L37.7367 18.5478L27.7367 22.2978L28.2633 23.7022ZM27.7367 16.2022L37.7367 19.9522L38.2633 18.5478L28.2633 14.7978L27.7367 16.2022ZM28.2633 22.2978L18.2633 18.5478L17.7367 19.9522L27.7367 23.7022L28.2633 22.2978ZM29.4221 34.7847L31.4077 32.7769L30.3412 31.7221L28.3555 33.73L29.4221 34.7847ZM31.8359 32.6497C35.2102 33.642 37.25 35.7847 37.25 38H38.75C38.75 34.7975 35.8977 32.2806 32.2591 31.2106L31.8359 32.6497ZM24.5923 32.7769L26.5779 34.7847L27.6445 33.73L25.6588 31.7221L24.5923 32.7769ZM18.75 38C18.75 35.7847 20.7898 33.642 24.1641 32.6497L23.7409 31.2106C20.1023 32.2806 17.25 34.7975 17.25 38H18.75ZM37.25 38V40.5H38.75V38H37.25ZM17.25 38V40.5H18.75V38H17.25ZM25.6588 31.7221C25.174 31.2319 24.4453 31.0035 23.7409 31.2106L24.1641 32.6497C24.2968 32.6107 24.4636 32.6467 24.5923 32.7769L25.6588 31.7221ZM31.4077 32.7769C31.5364 32.6467 31.7032 32.6107 31.8359 32.6497L32.2591 31.2106C31.5547 31.0035 30.826 31.2319 30.3412 31.7221L31.4077 32.7769ZM28.3555 33.73C28.1598 33.9279 27.8402 33.9279 27.6445 33.73L26.5779 34.7847C27.3608 35.5763 28.6392 35.5763 29.4221 34.7847L28.3555 33.73Z" fill="#3572C1"/>
</svg>
