<svg width="56" height="56" viewBox="0 0 56 56" fill="none" xmlns="http://www.w3.org/2000/svg">
<rect width="56" height="56" rx="28" fill="#3572C1" fill-opacity="0.2"/>
<path d="M16.75 23H39.25V28C39.25 30.9463 39.25 32.4194 38.3347 33.3347C37.4194 34.25 35.9463 34.25 33 34.25H23C20.0537 34.25 18.5806 34.25 17.6653 33.3347C16.75 32.4194 16.75 30.9463 16.75 28V23Z" stroke="#3572C1" stroke-width="1.5" stroke-linecap="round"/>
<path d="M21.75 20.5C21.75 18.143 21.75 16.9645 22.4822 16.2322C23.2145 15.5 24.393 15.5 26.75 15.5H29.25C31.607 15.5 32.7855 15.5 33.5178 16.2322C34.25 16.9645 34.25 18.143 34.25 20.5V23H21.75V20.5Z" stroke="#3572C1" stroke-width="1.5" stroke-linecap="round"/>
<path d="M19.25 34.25V40.5M36.75 34.25V40.5" stroke="#3572C1" stroke-width="1.5" stroke-linecap="round"/>
<path d="M23 34.25V38M33 34.25V38" stroke="#3572C1" stroke-width="1.5" stroke-linecap="round"/>
<path d="M15.5 23L17.7727 23M38.2273 23L40.5 23" stroke="#3572C1" stroke-width="1.5" stroke-linecap="round"/>
</svg>
