<svg width="56" height="56" viewBox="0 0 56 56" fill="none" xmlns="http://www.w3.org/2000/svg">
<rect width="56" height="56" rx="28" fill="#3572C1" fill-opacity="0.2"/>
<path d="M34.2437 18H21.7437C16.9562 18 15.6187 19.15 15.5062 23.625C17.9187 23.625 19.8687 25.5875 19.8687 28C19.8687 30.4125 17.9187 32.3625 15.5062 32.375C15.6187 36.85 16.9562 38 21.7437 38H34.2437C39.2437 38 40.4937 36.75 40.4937 31.75V24.25C40.4937 19.25 39.2437 18 34.2437 18Z" stroke="#3572C1" stroke-width="1.5" stroke-linecap="round" stroke-linejoin="round"/>
<path d="M24.2416 18V22.375" stroke="#3572C1" stroke-width="1.5" stroke-linecap="round" stroke-linejoin="round"/>
<path d="M24.2416 33.625V38" stroke="#3572C1" stroke-width="1.5" stroke-linecap="round" stroke-linejoin="round"/>
<path d="M31.7813 24.6627L32.5563 26.2252C32.6313 26.3752 32.7813 26.4877 32.9438 26.5127L34.6688 26.7627C35.0938 26.8252 35.2688 27.3502 34.9563 27.6502L33.7063 28.8627C33.5813 28.9752 33.5313 29.1502 33.5563 29.3252L33.8563 31.0377C33.9313 31.4627 33.4813 31.7877 33.1063 31.5877L31.5688 30.7752C31.4188 30.7002 31.2313 30.7002 31.0813 30.7752L29.5438 31.5877C29.1563 31.7877 28.7188 31.4627 28.7938 31.0377L29.0938 29.3252C29.1188 29.1502 29.0688 28.9877 28.9438 28.8627L27.7063 27.6502C27.3938 27.3502 27.5688 26.8252 27.9938 26.7627L29.7188 26.5127C29.8938 26.4877 30.0313 26.3877 30.1063 26.2252L30.8688 24.6627C31.0438 24.2752 31.5938 24.2752 31.7813 24.6627Z" stroke="#3572C1" stroke-width="1.5" stroke-linecap="round" stroke-linejoin="round"/>
</svg>
