<svg width="56" height="56" viewBox="0 0 56 56" fill="none" xmlns="http://www.w3.org/2000/svg">
<rect width="56" height="56" rx="28" fill="#3572C1" fill-opacity="0.2"/>
<path d="M37.125 22.8999V29.3374C37.125 33.1874 34.925 34.8373 31.625 34.8373H20.6375C20.075 34.8373 19.5375 34.7874 19.0375 34.6749C18.725 34.6249 18.425 34.5374 18.15 34.4374C16.275 33.7374 15.1375 32.1124 15.1375 29.3374V22.8999C15.1375 19.0499 17.3375 17.3999 20.6375 17.3999H31.625C34.425 17.3999 36.4375 18.5874 36.975 21.2999C37.0625 21.7999 37.125 22.3124 37.125 22.8999Z" stroke="#3572C1" stroke-width="1.5" stroke-miterlimit="10" stroke-linecap="round" stroke-linejoin="round"/>
<path d="M40.8764 26.6498V33.0873C40.8764 36.9373 38.6764 38.5872 35.3764 38.5872H24.3889C23.4639 38.5872 22.6264 38.4623 21.9014 38.1873C20.4139 37.6373 19.4014 36.4998 19.0389 34.6748C19.5389 34.7873 20.0764 34.8372 20.6389 34.8372H31.6264C34.9264 34.8372 37.1264 33.1873 37.1264 29.3373V22.8998C37.1264 22.3123 37.0764 21.7873 36.9764 21.2998C39.3514 21.7998 40.8764 23.4748 40.8764 26.6498Z" stroke="#3572C1" stroke-width="1.5" stroke-miterlimit="10" stroke-linecap="round" stroke-linejoin="round"/>
<path d="M26.1231 29.4247C27.9456 29.4247 29.4231 27.9473 29.4231 26.1247C29.4231 24.3022 27.9456 22.8247 26.1231 22.8247C24.3005 22.8247 22.823 24.3022 22.823 26.1247C22.823 27.9473 24.3005 29.4247 26.1231 29.4247Z" stroke="#3572C1" stroke-width="1.5" stroke-miterlimit="10" stroke-linecap="round" stroke-linejoin="round"/>
<path d="M18.975 23.375V28.875" stroke="#3572C1" stroke-width="1.5" stroke-miterlimit="10" stroke-linecap="round" stroke-linejoin="round"/>
<path d="M33.2771 23.3755V28.8755" stroke="#3572C1" stroke-width="1.5" stroke-miterlimit="10" stroke-linecap="round" stroke-linejoin="round"/>
</svg>
