<svg width="22" height="22" viewBox="0 0 22 22" fill="none" xmlns="http://www.w3.org/2000/svg">
<path d="M15.3542 3.26333V1.83333C15.3542 1.4575 15.0425 1.14583 14.6667 1.14583C14.2908 1.14583 13.9792 1.4575 13.9792 1.83333V3.20833H8.02082V1.83333C8.02082 1.4575 7.70915 1.14583 7.33332 1.14583C6.95749 1.14583 6.64582 1.4575 6.64582 1.83333V3.26333C4.17082 3.4925 2.96999 4.96833 2.78665 7.15917C2.76832 7.425 2.98832 7.645 3.24499 7.645H18.755C19.0208 7.645 19.2408 7.41583 19.2133 7.15917C19.03 4.96833 17.8292 3.4925 15.3542 3.26333Z" fill="#EC1C26"/>
<path d="M17.4167 13.75C15.3908 13.75 13.75 15.3908 13.75 17.4167C13.75 18.1042 13.9425 18.755 14.2817 19.305C14.9142 20.3683 16.0783 21.0833 17.4167 21.0833C18.755 21.0833 19.9192 20.3683 20.5517 19.305C20.8908 18.755 21.0833 18.1042 21.0833 17.4167C21.0833 15.3908 19.4425 13.75 17.4167 13.75ZM19.3142 17.0225L17.3617 18.8283C17.2333 18.9475 17.0592 19.0117 16.8942 19.0117C16.72 19.0117 16.5458 18.9475 16.4083 18.81L15.5008 17.9025C15.235 17.6367 15.235 17.1967 15.5008 16.9308C15.7667 16.665 16.2067 16.665 16.4725 16.9308L16.9125 17.3708L18.3792 16.0142C18.6542 15.7575 19.0942 15.7758 19.3508 16.0508C19.6075 16.3258 19.5892 16.7567 19.3142 17.0225Z" fill="#EC1C26"/>
<path d="M18.3333 9.02H3.66667C3.1625 9.02 2.75 9.4325 2.75 9.93667V15.5833C2.75 18.3333 4.125 20.1667 7.33333 20.1667H11.8525C12.485 20.1667 12.925 19.5525 12.7233 18.9567C12.54 18.425 12.3842 17.8383 12.3842 17.4167C12.3842 14.6392 14.6483 12.375 17.4258 12.375C17.6917 12.375 17.9575 12.3933 18.2142 12.4392C18.7642 12.5217 19.2592 12.0908 19.2592 11.5408V9.94583C19.25 9.4325 18.8375 9.02 18.3333 9.02ZM8.4425 16.6925C8.26833 16.8575 8.03 16.9583 7.79167 16.9583C7.55333 16.9583 7.315 16.8575 7.14083 16.6925C6.97583 16.5183 6.875 16.28 6.875 16.0417C6.875 15.8033 6.97583 15.565 7.14083 15.3908C7.2325 15.3083 7.32417 15.2442 7.44333 15.1983C7.7825 15.0517 8.18583 15.1342 8.4425 15.3908C8.6075 15.565 8.70833 15.8033 8.70833 16.0417C8.70833 16.28 8.6075 16.5183 8.4425 16.6925ZM8.4425 13.4842C8.39667 13.5208 8.35083 13.5575 8.305 13.5942C8.25 13.6308 8.195 13.6583 8.14 13.6767C8.085 13.7042 8.03 13.7225 7.975 13.7317C7.91083 13.7408 7.84667 13.75 7.79167 13.75C7.55333 13.75 7.315 13.6492 7.14083 13.4842C6.97583 13.31 6.875 13.0717 6.875 12.8333C6.875 12.595 6.97583 12.3567 7.14083 12.1825C7.35167 11.9717 7.6725 11.8708 7.975 11.935C8.03 11.9442 8.085 11.9625 8.14 11.99C8.195 12.0083 8.25 12.0358 8.305 12.0725C8.35083 12.1092 8.39667 12.1458 8.4425 12.1825C8.6075 12.3567 8.70833 12.595 8.70833 12.8333C8.70833 13.0717 8.6075 13.31 8.4425 13.4842ZM11.6508 13.4842C11.4767 13.6492 11.2383 13.75 11 13.75C10.7617 13.75 10.5233 13.6492 10.3492 13.4842C10.1842 13.31 10.0833 13.0717 10.0833 12.8333C10.0833 12.595 10.1842 12.3567 10.3492 12.1825C10.6975 11.8433 11.3117 11.8433 11.6508 12.1825C11.8158 12.3567 11.9167 12.595 11.9167 12.8333C11.9167 13.0717 11.8158 13.31 11.6508 13.4842Z" fill="#EC1C26"/>
</svg>
