<svg width="22" height="22" viewBox="0 0 22 22" fill="none" xmlns="http://www.w3.org/2000/svg">
<path d="M19.25 20.8542H2.75C2.37417 20.8542 2.0625 20.5425 2.0625 20.1667C2.0625 19.7908 2.37417 19.4792 2.75 19.4792H19.25C19.6258 19.4792 19.9375 19.7908 19.9375 20.1667C19.9375 20.5425 19.6258 20.8542 19.25 20.8542Z" fill="#EC1C26"/>
<path d="M5.13333 7.68167H3.66667C3.1625 7.68167 2.75 8.09417 2.75 8.59833V16.5C2.75 17.0042 3.1625 17.4167 3.66667 17.4167H5.13333C5.6375 17.4167 6.05 17.0042 6.05 16.5V8.59833C6.05 8.085 5.6375 7.68167 5.13333 7.68167Z" fill="#EC1C26"/>
<path d="M11.7333 4.7575H10.2667C9.76251 4.7575 9.35001 5.17 9.35001 5.67417V16.5C9.35001 17.0042 9.76251 17.4167 10.2667 17.4167H11.7333C12.2375 17.4167 12.65 17.0042 12.65 16.5V5.67417C12.65 5.17 12.2375 4.7575 11.7333 4.7575Z" fill="#EC1C26"/>
<path d="M18.3333 1.83333H16.8667C16.3625 1.83333 15.95 2.24583 15.95 2.75V16.5C15.95 17.0042 16.3625 17.4167 16.8667 17.4167H18.3333C18.8375 17.4167 19.25 17.0042 19.25 16.5V2.75C19.25 2.24583 18.8375 1.83333 18.3333 1.83333Z" fill="#EC1C26"/>
</svg>
