<svg width="22" height="22" viewBox="0 0 22 22" fill="none" xmlns="http://www.w3.org/2000/svg">
<path d="M6.6868 15.5833C3.23624 6.64583 8.12453 2.69271 11 1.83333C13.8755 2.69271 18.7638 6.64583 15.3132 15.5833C14.7921 15.2969 13.2 14.724 11 14.724C8.8 14.724 7.20787 15.2969 6.6868 15.5833Z" fill="#EC1C26" stroke="#EC1C26" stroke-width="1.5" stroke-linecap="round" stroke-linejoin="round"/>
<path d="M12.8333 8.25C12.8333 7.23748 12.0125 6.41667 11 6.41667C9.98744 6.41667 9.16663 7.23748 9.16663 8.25C9.16663 9.26252 9.98744 10.0833 11 10.0833C12.0125 10.0833 12.8333 9.26252 12.8333 8.25Z" fill="#EFF4FA" stroke="#EFF4FA" stroke-width="1.5"/>
<path d="M20.1496 15.5834C18.9821 14.742 17.3635 14.3833 16.0416 14.2611L16.5 10.0833C20.629 11.0588 20.1496 15.5834 20.1496 15.5834Z" fill="#EC1C26" stroke="#EC1C26" stroke-width="1.5" stroke-linecap="round" stroke-linejoin="round"/>
<path d="M1.85034 15.5834C3.0178 14.742 4.63643 14.3833 5.95831 14.2611L5.49998 10.0833C1.3709 11.0588 1.85034 15.5834 1.85034 15.5834Z" fill="#EC1C26" stroke="#EC1C26" stroke-width="1.5" stroke-linecap="round" stroke-linejoin="round"/>
<path d="M8.70831 17.4167C8.70831 17.4167 9.09026 19.7083 11 20.1667C12.9097 19.7083 13.2916 17.4167 13.2916 17.4167" stroke="#EC1C26" stroke-width="1.5" stroke-linecap="round" stroke-linejoin="round"/>
</svg>
